<?xml version="1.0" encoding="utf-8" standalone="no"?>
<!DOCTYPE svg PUBLIC "-//W3C//DTD SVG 1.1//EN"
  "http://www.w3.org/Graphics/SVG/1.1/DTD/svg11.dtd">
<svg xmlns:xlink="http://www.w3.org/1999/xlink" width="720pt" height="432pt" viewBox="0 0 720 432" xmlns="http://www.w3.org/2000/svg" version="1.1">
 <metadata>
  <rdf:RDF xmlns:dc="http://purl.org/dc/elements/1.1/" xmlns:cc="http://creativecommons.org/ns#" xmlns:rdf="http://www.w3.org/1999/02/22-rdf-syntax-ns#">
   <cc:Work>
    <dc:type rdf:resource="http://purl.org/dc/dcmitype/StillImage"/>
    <dc:date>2025-09-23T07:57:03.364985</dc:date>
    <dc:format>image/svg+xml</dc:format>
    <dc:creator>
     <cc:Agent>
      <dc:title>Matplotlib v3.10.6, https://matplotlib.org/</dc:title>
     </cc:Agent>
    </dc:creator>
   </cc:Work>
  </rdf:RDF>
 </metadata>
 <defs>
  <style type="text/css">*{stroke-linejoin: round; stroke-linecap: butt}</style>
 </defs>
 <g id="figure_1">
  <g id="patch_1">
   <path d="M 0 432 
L 720 432 
L 720 0 
L 0 0 
z
" style="fill: #ffffff"/>
  </g>
  <g id="axes_1">
   <g id="patch_2">
    <path d="M 90 384.48 
L 648 384.48 
L 648 51.84 
L 90 51.84 
z
" style="fill: #ffffff"/>
   </g>
   <g id="matplotlib.axis_1">
    <g id="xtick_1">
     <g id="line2d_1">
      <path d="M 114.345016 384.48 
L 114.345016 51.84 
" clip-path="url(#p8d7da546d6)" style="fill: none; stroke: #b0b0b0; stroke-width: 0.8; stroke-linecap: square"/>
     </g>
     <g id="line2d_2">
      <defs>
       <path id="m9df4dab54b" d="M 0 0 
L 0 3.5 
" style="stroke: #000000; stroke-width: 0.8"/>
      </defs>
      <g>
       <use xlink:href="#m9df4dab54b" x="114.345016" y="384.48" style="stroke: #000000; stroke-width: 0.8"/>
      </g>
     </g>
     <g id="text_1">
      <!-- 0 -->
      <g transform="translate(111.163766 399.078438) scale(0.1 -0.1)">
       <defs>
        <path id="DejaVuSans-30" d="M 2034 4250 
Q 1547 4250 1301 3770 
Q 1056 3291 1056 2328 
Q 1056 1369 1301 889 
Q 1547 409 2034 409 
Q 2525 409 2770 889 
Q 3016 1369 3016 2328 
Q 3016 3291 2770 3770 
Q 2525 4250 2034 4250 
z
M 2034 4750 
Q 2819 4750 3233 4129 
Q 3647 3509 3647 2328 
Q 3647 1150 3233 529 
Q 2819 -91 2034 -91 
Q 1250 -91 836 529 
Q 422 1150 422 2328 
Q 422 3509 836 4129 
Q 1250 4750 2034 4750 
z
" transform="scale(0.015625)"/>
       </defs>
       <use xlink:href="#DejaVuSans-30"/>
      </g>
     </g>
    </g>
    <g id="xtick_2">
     <g id="line2d_3">
      <path d="M 216.20701 384.48 
L 216.20701 51.84 
" clip-path="url(#p8d7da546d6)" style="fill: none; stroke: #b0b0b0; stroke-width: 0.8; stroke-linecap: square"/>
     </g>
     <g id="line2d_4">
      <g>
       <use xlink:href="#m9df4dab54b" x="216.20701" y="384.48" style="stroke: #000000; stroke-width: 0.8"/>
      </g>
     </g>
     <g id="text_2">
      <!-- 100 -->
      <g transform="translate(206.66326 399.078438) scale(0.1 -0.1)">
       <defs>
        <path id="DejaVuSans-31" d="M 794 531 
L 1825 531 
L 1825 4091 
L 703 3866 
L 703 4441 
L 1819 4666 
L 2450 4666 
L 2450 531 
L 3481 531 
L 3481 0 
L 794 0 
L 794 531 
z
" transform="scale(0.015625)"/>
       </defs>
       <use xlink:href="#DejaVuSans-31"/>
       <use xlink:href="#DejaVuSans-30" transform="translate(63.623047 0)"/>
       <use xlink:href="#DejaVuSans-30" transform="translate(127.246094 0)"/>
      </g>
     </g>
    </g>
    <g id="xtick_3">
     <g id="line2d_5">
      <path d="M 318.069003 384.48 
L 318.069003 51.84 
" clip-path="url(#p8d7da546d6)" style="fill: none; stroke: #b0b0b0; stroke-width: 0.8; stroke-linecap: square"/>
     </g>
     <g id="line2d_6">
      <g>
       <use xlink:href="#m9df4dab54b" x="318.069003" y="384.48" style="stroke: #000000; stroke-width: 0.8"/>
      </g>
     </g>
     <g id="text_3">
      <!-- 200 -->
      <g transform="translate(308.525253 399.078438) scale(0.1 -0.1)">
       <defs>
        <path id="DejaVuSans-32" d="M 1228 531 
L 3431 531 
L 3431 0 
L 469 0 
L 469 531 
Q 828 903 1448 1529 
Q 2069 2156 2228 2338 
Q 2531 2678 2651 2914 
Q 2772 3150 2772 3378 
Q 2772 3750 2511 3984 
Q 2250 4219 1831 4219 
Q 1534 4219 1204 4116 
Q 875 4013 500 3803 
L 500 4441 
Q 881 4594 1212 4672 
Q 1544 4750 1819 4750 
Q 2544 4750 2975 4387 
Q 3406 4025 3406 3419 
Q 3406 3131 3298 2873 
Q 3191 2616 2906 2266 
Q 2828 2175 2409 1742 
Q 1991 1309 1228 531 
z
" transform="scale(0.015625)"/>
       </defs>
       <use xlink:href="#DejaVuSans-32"/>
       <use xlink:href="#DejaVuSans-30" transform="translate(63.623047 0)"/>
       <use xlink:href="#DejaVuSans-30" transform="translate(127.246094 0)"/>
      </g>
     </g>
    </g>
    <g id="xtick_4">
     <g id="line2d_7">
      <path d="M 419.930997 384.48 
L 419.930997 51.84 
" clip-path="url(#p8d7da546d6)" style="fill: none; stroke: #b0b0b0; stroke-width: 0.8; stroke-linecap: square"/>
     </g>
     <g id="line2d_8">
      <g>
       <use xlink:href="#m9df4dab54b" x="419.930997" y="384.48" style="stroke: #000000; stroke-width: 0.8"/>
      </g>
     </g>
     <g id="text_4">
      <!-- 300 -->
      <g transform="translate(410.387247 399.078438) scale(0.1 -0.1)">
       <defs>
        <path id="DejaVuSans-33" d="M 2597 2516 
Q 3050 2419 3304 2112 
Q 3559 1806 3559 1356 
Q 3559 666 3084 287 
Q 2609 -91 1734 -91 
Q 1441 -91 1130 -33 
Q 819 25 488 141 
L 488 750 
Q 750 597 1062 519 
Q 1375 441 1716 441 
Q 2309 441 2620 675 
Q 2931 909 2931 1356 
Q 2931 1769 2642 2001 
Q 2353 2234 1838 2234 
L 1294 2234 
L 1294 2753 
L 1863 2753 
Q 2328 2753 2575 2939 
Q 2822 3125 2822 3475 
Q 2822 3834 2567 4026 
Q 2313 4219 1838 4219 
Q 1578 4219 1281 4162 
Q 984 4106 628 3988 
L 628 4550 
Q 988 4650 1302 4700 
Q 1616 4750 1894 4750 
Q 2613 4750 3031 4423 
Q 3450 4097 3450 3541 
Q 3450 3153 3228 2886 
Q 3006 2619 2597 2516 
z
" transform="scale(0.015625)"/>
       </defs>
       <use xlink:href="#DejaVuSans-33"/>
       <use xlink:href="#DejaVuSans-30" transform="translate(63.623047 0)"/>
       <use xlink:href="#DejaVuSans-30" transform="translate(127.246094 0)"/>
      </g>
     </g>
    </g>
    <g id="xtick_5">
     <g id="line2d_9">
      <path d="M 521.79299 384.48 
L 521.79299 51.84 
" clip-path="url(#p8d7da546d6)" style="fill: none; stroke: #b0b0b0; stroke-width: 0.8; stroke-linecap: square"/>
     </g>
     <g id="line2d_10">
      <g>
       <use xlink:href="#m9df4dab54b" x="521.79299" y="384.48" style="stroke: #000000; stroke-width: 0.8"/>
      </g>
     </g>
     <g id="text_5">
      <!-- 400 -->
      <g transform="translate(512.24924 399.078438) scale(0.1 -0.1)">
       <defs>
        <path id="DejaVuSans-34" d="M 2419 4116 
L 825 1625 
L 2419 1625 
L 2419 4116 
z
M 2253 4666 
L 3047 4666 
L 3047 1625 
L 3713 1625 
L 3713 1100 
L 3047 1100 
L 3047 0 
L 2419 0 
L 2419 1100 
L 313 1100 
L 313 1709 
L 2253 4666 
z
" transform="scale(0.015625)"/>
       </defs>
       <use xlink:href="#DejaVuSans-34"/>
       <use xlink:href="#DejaVuSans-30" transform="translate(63.623047 0)"/>
       <use xlink:href="#DejaVuSans-30" transform="translate(127.246094 0)"/>
      </g>
     </g>
    </g>
    <g id="xtick_6">
     <g id="line2d_11">
      <path d="M 623.654984 384.48 
L 623.654984 51.84 
" clip-path="url(#p8d7da546d6)" style="fill: none; stroke: #b0b0b0; stroke-width: 0.8; stroke-linecap: square"/>
     </g>
     <g id="line2d_12">
      <g>
       <use xlink:href="#m9df4dab54b" x="623.654984" y="384.48" style="stroke: #000000; stroke-width: 0.8"/>
      </g>
     </g>
     <g id="text_6">
      <!-- 500 -->
      <g transform="translate(614.111234 399.078438) scale(0.1 -0.1)">
       <defs>
        <path id="DejaVuSans-35" d="M 691 4666 
L 3169 4666 
L 3169 4134 
L 1269 4134 
L 1269 2991 
Q 1406 3038 1543 3061 
Q 1681 3084 1819 3084 
Q 2600 3084 3056 2656 
Q 3513 2228 3513 1497 
Q 3513 744 3044 326 
Q 2575 -91 1722 -91 
Q 1428 -91 1123 -41 
Q 819 9 494 109 
L 494 744 
Q 775 591 1075 516 
Q 1375 441 1709 441 
Q 2250 441 2565 725 
Q 2881 1009 2881 1497 
Q 2881 1984 2565 2268 
Q 2250 2553 1709 2553 
Q 1456 2553 1204 2497 
Q 953 2441 691 2322 
L 691 4666 
z
" transform="scale(0.015625)"/>
       </defs>
       <use xlink:href="#DejaVuSans-35"/>
       <use xlink:href="#DejaVuSans-30" transform="translate(63.623047 0)"/>
       <use xlink:href="#DejaVuSans-30" transform="translate(127.246094 0)"/>
      </g>
     </g>
    </g>
    <g id="text_7">
     <!-- Размер матрицы -->
     <g transform="translate(325.128125 412.756563) scale(0.1 -0.1)">
      <defs>
       <path id="DejaVuSans-420" d="M 1259 4147 
L 1259 2394 
L 2053 2394 
Q 2494 2394 2734 2622 
Q 2975 2850 2975 3272 
Q 2975 3691 2734 3919 
Q 2494 4147 2053 4147 
L 1259 4147 
z
M 628 4666 
L 2053 4666 
Q 2838 4666 3239 4311 
Q 3641 3956 3641 3272 
Q 3641 2581 3239 2228 
Q 2838 1875 2053 1875 
L 1259 1875 
L 1259 0 
L 628 0 
L 628 4666 
z
" transform="scale(0.015625)"/>
       <path id="DejaVuSans-430" d="M 2194 1759 
Q 1497 1759 1228 1600 
Q 959 1441 959 1056 
Q 959 750 1161 570 
Q 1363 391 1709 391 
Q 2188 391 2477 730 
Q 2766 1069 2766 1631 
L 2766 1759 
L 2194 1759 
z
M 3341 1997 
L 3341 0 
L 2766 0 
L 2766 531 
Q 2569 213 2275 61 
Q 1981 -91 1556 -91 
Q 1019 -91 701 211 
Q 384 513 384 1019 
Q 384 1609 779 1909 
Q 1175 2209 1959 2209 
L 2766 2209 
L 2766 2266 
Q 2766 2663 2505 2880 
Q 2244 3097 1772 3097 
Q 1472 3097 1187 3025 
Q 903 2953 641 2809 
L 641 3341 
Q 956 3463 1253 3523 
Q 1550 3584 1831 3584 
Q 2591 3584 2966 3190 
Q 3341 2797 3341 1997 
z
" transform="scale(0.015625)"/>
       <path id="DejaVuSans-437" d="M 2206 1888 
Q 2594 1813 2809 1584 
Q 3025 1356 3025 1019 
Q 3025 478 2622 193 
Q 2219 -91 1475 -91 
Q 1225 -91 961 -47 
Q 697 -3 416 84 
L 416 619 
Q 638 503 903 445 
Q 1169 388 1459 388 
Q 1931 388 2195 563 
Q 2459 738 2459 1019 
Q 2459 1294 2225 1461 
Q 1991 1628 1563 1628 
L 1100 1628 
L 1100 2103 
L 1584 2103 
Q 1947 2103 2158 2242 
Q 2369 2381 2369 2600 
Q 2369 2800 2151 2944 
Q 1934 3088 1563 3088 
Q 1341 3088 1089 3047 
Q 838 3006 534 2916 
L 534 3438 
Q 841 3513 1106 3550 
Q 1372 3588 1609 3588 
Q 2222 3588 2576 3342 
Q 2931 3097 2931 2656 
Q 2931 2366 2743 2164 
Q 2556 1963 2206 1888 
z
" transform="scale(0.015625)"/>
       <path id="DejaVuSans-43c" d="M 581 3500 
L 1422 3500 
L 2416 1156 
L 3413 3500 
L 4247 3500 
L 4247 0 
L 3669 0 
L 3669 2950 
L 2703 672 
L 2128 672 
L 1159 2950 
L 1159 0 
L 581 0 
L 581 3500 
z
" transform="scale(0.015625)"/>
       <path id="DejaVuSans-435" d="M 3597 1894 
L 3597 1613 
L 953 1613 
Q 991 1019 1311 708 
Q 1631 397 2203 397 
Q 2534 397 2845 478 
Q 3156 559 3463 722 
L 3463 178 
Q 3153 47 2828 -22 
Q 2503 -91 2169 -91 
Q 1331 -91 842 396 
Q 353 884 353 1716 
Q 353 2575 817 3079 
Q 1281 3584 2069 3584 
Q 2775 3584 3186 3129 
Q 3597 2675 3597 1894 
z
M 3022 2063 
Q 3016 2534 2758 2815 
Q 2500 3097 2075 3097 
Q 1594 3097 1305 2825 
Q 1016 2553 972 2059 
L 3022 2063 
z
" transform="scale(0.015625)"/>
       <path id="DejaVuSans-440" d="M 1159 525 
L 1159 -1331 
L 581 -1331 
L 581 3500 
L 1159 3500 
L 1159 2969 
Q 1341 3281 1617 3432 
Q 1894 3584 2278 3584 
Q 2916 3584 3314 3078 
Q 3713 2572 3713 1747 
Q 3713 922 3314 415 
Q 2916 -91 2278 -91 
Q 1894 -91 1617 61 
Q 1341 213 1159 525 
z
M 3116 1747 
Q 3116 2381 2855 2742 
Q 2594 3103 2138 3103 
Q 1681 3103 1420 2742 
Q 1159 2381 1159 1747 
Q 1159 1113 1420 752 
Q 1681 391 2138 391 
Q 2594 391 2855 752 
Q 3116 1113 3116 1747 
z
" transform="scale(0.015625)"/>
       <path id="DejaVuSans-20" transform="scale(0.015625)"/>
       <path id="DejaVuSans-442" d="M 188 3500 
L 3541 3500 
L 3541 3041 
L 2147 3041 
L 2147 0 
L 1581 0 
L 1581 3041 
L 188 3041 
L 188 3500 
z
" transform="scale(0.015625)"/>
       <path id="DejaVuSans-438" d="M 3578 3500 
L 3578 0 
L 3006 0 
L 3006 2809 
L 1319 0 
L 581 0 
L 581 3500 
L 1153 3500 
L 1153 697 
L 2838 3500 
L 3578 3500 
z
" transform="scale(0.015625)"/>
       <path id="DejaVuSans-446" d="M 3603 0 
L 581 0 
L 581 3500 
L 1159 3500 
L 1159 459 
L 3025 459 
L 3025 3500 
L 3603 3500 
L 3603 459 
L 4063 459 
L 4063 -884 
L 3603 -884 
L 3603 0 
z
" transform="scale(0.015625)"/>
       <path id="DejaVuSans-44b" d="M 3907 3500 
L 4482 3500 
L 4482 0 
L 3907 0 
L 3907 3500 
z
M 4195 3584 
L 4195 3584 
z
M 2781 1038 
Q 2781 1319 2576 1466 
Q 2372 1613 1978 1613 
L 1159 1613 
L 1159 459 
L 1978 459 
Q 2372 459 2576 607 
Q 2781 756 2781 1038 
z
M 581 3500 
L 1159 3500 
L 1159 2072 
L 2003 2072 
Q 2672 2072 3033 1817 
Q 3394 1563 3394 1038 
Q 3394 513 3033 256 
Q 2672 0 2003 0 
L 581 0 
L 581 3500 
z
" transform="scale(0.015625)"/>
      </defs>
      <use xlink:href="#DejaVuSans-420"/>
      <use xlink:href="#DejaVuSans-430" transform="translate(60.302734 0)"/>
      <use xlink:href="#DejaVuSans-437" transform="translate(121.582031 0)"/>
      <use xlink:href="#DejaVuSans-43c" transform="translate(174.755859 0)"/>
      <use xlink:href="#DejaVuSans-435" transform="translate(250.195312 0)"/>
      <use xlink:href="#DejaVuSans-440" transform="translate(311.71875 0)"/>
      <use xlink:href="#DejaVuSans-20" transform="translate(375.195312 0)"/>
      <use xlink:href="#DejaVuSans-43c" transform="translate(406.982422 0)"/>
      <use xlink:href="#DejaVuSans-430" transform="translate(482.421875 0)"/>
      <use xlink:href="#DejaVuSans-442" transform="translate(543.701172 0)"/>
      <use xlink:href="#DejaVuSans-440" transform="translate(601.953125 0)"/>
      <use xlink:href="#DejaVuSans-438" transform="translate(665.429688 0)"/>
      <use xlink:href="#DejaVuSans-446" transform="translate(730.419922 0)"/>
      <use xlink:href="#DejaVuSans-44b" transform="translate(798.486328 0)"/>
     </g>
    </g>
   </g>
   <g id="matplotlib.axis_2">
    <g id="ytick_1">
     <g id="line2d_13">
      <path d="M 90 369.36001 
L 648 369.36001 
" clip-path="url(#p8d7da546d6)" style="fill: none; stroke: #b0b0b0; stroke-width: 0.8; stroke-linecap: square"/>
     </g>
     <g id="line2d_14">
      <defs>
       <path id="m16dbc8b44b" d="M 0 0 
L -3.5 0 
" style="stroke: #000000; stroke-width: 0.8"/>
      </defs>
      <g>
       <use xlink:href="#m16dbc8b44b" x="90" y="369.36001" style="stroke: #000000; stroke-width: 0.8"/>
      </g>
     </g>
     <g id="text_8">
      <!-- 0 -->
      <g transform="translate(76.6375 373.159229) scale(0.1 -0.1)">
       <use xlink:href="#DejaVuSans-30"/>
      </g>
     </g>
    </g>
    <g id="ytick_2">
     <g id="line2d_15">
      <path d="M 90 322.673848 
L 648 322.673848 
" clip-path="url(#p8d7da546d6)" style="fill: none; stroke: #b0b0b0; stroke-width: 0.8; stroke-linecap: square"/>
     </g>
     <g id="line2d_16">
      <g>
       <use xlink:href="#m16dbc8b44b" x="90" y="322.673848" style="stroke: #000000; stroke-width: 0.8"/>
      </g>
     </g>
     <g id="text_9">
      <!-- 200000000 -->
      <g transform="translate(25.7375 326.473067) scale(0.1 -0.1)">
       <use xlink:href="#DejaVuSans-32"/>
       <use xlink:href="#DejaVuSans-30" transform="translate(63.623047 0)"/>
       <use xlink:href="#DejaVuSans-30" transform="translate(127.246094 0)"/>
       <use xlink:href="#DejaVuSans-30" transform="translate(190.869141 0)"/>
       <use xlink:href="#DejaVuSans-30" transform="translate(254.492188 0)"/>
       <use xlink:href="#DejaVuSans-30" transform="translate(318.115234 0)"/>
       <use xlink:href="#DejaVuSans-30" transform="translate(381.738281 0)"/>
       <use xlink:href="#DejaVuSans-30" transform="translate(445.361328 0)"/>
       <use xlink:href="#DejaVuSans-30" transform="translate(508.984375 0)"/>
      </g>
     </g>
    </g>
    <g id="ytick_3">
     <g id="line2d_17">
      <path d="M 90 275.987686 
L 648 275.987686 
" clip-path="url(#p8d7da546d6)" style="fill: none; stroke: #b0b0b0; stroke-width: 0.8; stroke-linecap: square"/>
     </g>
     <g id="line2d_18">
      <g>
       <use xlink:href="#m16dbc8b44b" x="90" y="275.987686" style="stroke: #000000; stroke-width: 0.8"/>
      </g>
     </g>
     <g id="text_10">
      <!-- 400000000 -->
      <g transform="translate(25.7375 279.786904) scale(0.1 -0.1)">
       <use xlink:href="#DejaVuSans-34"/>
       <use xlink:href="#DejaVuSans-30" transform="translate(63.623047 0)"/>
       <use xlink:href="#DejaVuSans-30" transform="translate(127.246094 0)"/>
       <use xlink:href="#DejaVuSans-30" transform="translate(190.869141 0)"/>
       <use xlink:href="#DejaVuSans-30" transform="translate(254.492188 0)"/>
       <use xlink:href="#DejaVuSans-30" transform="translate(318.115234 0)"/>
       <use xlink:href="#DejaVuSans-30" transform="translate(381.738281 0)"/>
       <use xlink:href="#DejaVuSans-30" transform="translate(445.361328 0)"/>
       <use xlink:href="#DejaVuSans-30" transform="translate(508.984375 0)"/>
      </g>
     </g>
    </g>
    <g id="ytick_4">
     <g id="line2d_19">
      <path d="M 90 229.301523 
L 648 229.301523 
" clip-path="url(#p8d7da546d6)" style="fill: none; stroke: #b0b0b0; stroke-width: 0.8; stroke-linecap: square"/>
     </g>
     <g id="line2d_20">
      <g>
       <use xlink:href="#m16dbc8b44b" x="90" y="229.301523" style="stroke: #000000; stroke-width: 0.8"/>
      </g>
     </g>
     <g id="text_11">
      <!-- 600000000 -->
      <g transform="translate(25.7375 233.100742) scale(0.1 -0.1)">
       <defs>
        <path id="DejaVuSans-36" d="M 2113 2584 
Q 1688 2584 1439 2293 
Q 1191 2003 1191 1497 
Q 1191 994 1439 701 
Q 1688 409 2113 409 
Q 2538 409 2786 701 
Q 3034 994 3034 1497 
Q 3034 2003 2786 2293 
Q 2538 2584 2113 2584 
z
M 3366 4563 
L 3366 3988 
Q 3128 4100 2886 4159 
Q 2644 4219 2406 4219 
Q 1781 4219 1451 3797 
Q 1122 3375 1075 2522 
Q 1259 2794 1537 2939 
Q 1816 3084 2150 3084 
Q 2853 3084 3261 2657 
Q 3669 2231 3669 1497 
Q 3669 778 3244 343 
Q 2819 -91 2113 -91 
Q 1303 -91 875 529 
Q 447 1150 447 2328 
Q 447 3434 972 4092 
Q 1497 4750 2381 4750 
Q 2619 4750 2861 4703 
Q 3103 4656 3366 4563 
z
" transform="scale(0.015625)"/>
       </defs>
       <use xlink:href="#DejaVuSans-36"/>
       <use xlink:href="#DejaVuSans-30" transform="translate(63.623047 0)"/>
       <use xlink:href="#DejaVuSans-30" transform="translate(127.246094 0)"/>
       <use xlink:href="#DejaVuSans-30" transform="translate(190.869141 0)"/>
       <use xlink:href="#DejaVuSans-30" transform="translate(254.492188 0)"/>
       <use xlink:href="#DejaVuSans-30" transform="translate(318.115234 0)"/>
       <use xlink:href="#DejaVuSans-30" transform="translate(381.738281 0)"/>
       <use xlink:href="#DejaVuSans-30" transform="translate(445.361328 0)"/>
       <use xlink:href="#DejaVuSans-30" transform="translate(508.984375 0)"/>
      </g>
     </g>
    </g>
    <g id="ytick_5">
     <g id="line2d_21">
      <path d="M 90 182.615361 
L 648 182.615361 
" clip-path="url(#p8d7da546d6)" style="fill: none; stroke: #b0b0b0; stroke-width: 0.8; stroke-linecap: square"/>
     </g>
     <g id="line2d_22">
      <g>
       <use xlink:href="#m16dbc8b44b" x="90" y="182.615361" style="stroke: #000000; stroke-width: 0.8"/>
      </g>
     </g>
     <g id="text_12">
      <!-- 800000000 -->
      <g transform="translate(25.7375 186.41458) scale(0.1 -0.1)">
       <defs>
        <path id="DejaVuSans-38" d="M 2034 2216 
Q 1584 2216 1326 1975 
Q 1069 1734 1069 1313 
Q 1069 891 1326 650 
Q 1584 409 2034 409 
Q 2484 409 2743 651 
Q 3003 894 3003 1313 
Q 3003 1734 2745 1975 
Q 2488 2216 2034 2216 
z
M 1403 2484 
Q 997 2584 770 2862 
Q 544 3141 544 3541 
Q 544 4100 942 4425 
Q 1341 4750 2034 4750 
Q 2731 4750 3128 4425 
Q 3525 4100 3525 3541 
Q 3525 3141 3298 2862 
Q 3072 2584 2669 2484 
Q 3125 2378 3379 2068 
Q 3634 1759 3634 1313 
Q 3634 634 3220 271 
Q 2806 -91 2034 -91 
Q 1263 -91 848 271 
Q 434 634 434 1313 
Q 434 1759 690 2068 
Q 947 2378 1403 2484 
z
M 1172 3481 
Q 1172 3119 1398 2916 
Q 1625 2713 2034 2713 
Q 2441 2713 2670 2916 
Q 2900 3119 2900 3481 
Q 2900 3844 2670 4047 
Q 2441 4250 2034 4250 
Q 1625 4250 1398 4047 
Q 1172 3844 1172 3481 
z
" transform="scale(0.015625)"/>
       </defs>
       <use xlink:href="#DejaVuSans-38"/>
       <use xlink:href="#DejaVuSans-30" transform="translate(63.623047 0)"/>
       <use xlink:href="#DejaVuSans-30" transform="translate(127.246094 0)"/>
       <use xlink:href="#DejaVuSans-30" transform="translate(190.869141 0)"/>
       <use xlink:href="#DejaVuSans-30" transform="translate(254.492188 0)"/>
       <use xlink:href="#DejaVuSans-30" transform="translate(318.115234 0)"/>
       <use xlink:href="#DejaVuSans-30" transform="translate(381.738281 0)"/>
       <use xlink:href="#DejaVuSans-30" transform="translate(445.361328 0)"/>
       <use xlink:href="#DejaVuSans-30" transform="translate(508.984375 0)"/>
      </g>
     </g>
    </g>
    <g id="ytick_6">
     <g id="line2d_23">
      <path d="M 90 135.929199 
L 648 135.929199 
" clip-path="url(#p8d7da546d6)" style="fill: none; stroke: #b0b0b0; stroke-width: 0.8; stroke-linecap: square"/>
     </g>
     <g id="line2d_24">
      <g>
       <use xlink:href="#m16dbc8b44b" x="90" y="135.929199" style="stroke: #000000; stroke-width: 0.8"/>
      </g>
     </g>
     <g id="text_13">
      <!-- 1000000000 -->
      <g transform="translate(19.375 139.728417) scale(0.1 -0.1)">
       <use xlink:href="#DejaVuSans-31"/>
       <use xlink:href="#DejaVuSans-30" transform="translate(63.623047 0)"/>
       <use xlink:href="#DejaVuSans-30" transform="translate(127.246094 0)"/>
       <use xlink:href="#DejaVuSans-30" transform="translate(190.869141 0)"/>
       <use xlink:href="#DejaVuSans-30" transform="translate(254.492188 0)"/>
       <use xlink:href="#DejaVuSans-30" transform="translate(318.115234 0)"/>
       <use xlink:href="#DejaVuSans-30" transform="translate(381.738281 0)"/>
       <use xlink:href="#DejaVuSans-30" transform="translate(445.361328 0)"/>
       <use xlink:href="#DejaVuSans-30" transform="translate(508.984375 0)"/>
       <use xlink:href="#DejaVuSans-30" transform="translate(572.607422 0)"/>
      </g>
     </g>
    </g>
    <g id="ytick_7">
     <g id="line2d_25">
      <path d="M 90 89.243036 
L 648 89.243036 
" clip-path="url(#p8d7da546d6)" style="fill: none; stroke: #b0b0b0; stroke-width: 0.8; stroke-linecap: square"/>
     </g>
     <g id="line2d_26">
      <g>
       <use xlink:href="#m16dbc8b44b" x="90" y="89.243036" style="stroke: #000000; stroke-width: 0.8"/>
      </g>
     </g>
     <g id="text_14">
      <!-- 1200000000 -->
      <g transform="translate(19.375 93.042255) scale(0.1 -0.1)">
       <use xlink:href="#DejaVuSans-31"/>
       <use xlink:href="#DejaVuSans-32" transform="translate(63.623047 0)"/>
       <use xlink:href="#DejaVuSans-30" transform="translate(127.246094 0)"/>
       <use xlink:href="#DejaVuSans-30" transform="translate(190.869141 0)"/>
       <use xlink:href="#DejaVuSans-30" transform="translate(254.492188 0)"/>
       <use xlink:href="#DejaVuSans-30" transform="translate(318.115234 0)"/>
       <use xlink:href="#DejaVuSans-30" transform="translate(381.738281 0)"/>
       <use xlink:href="#DejaVuSans-30" transform="translate(445.361328 0)"/>
       <use xlink:href="#DejaVuSans-30" transform="translate(508.984375 0)"/>
       <use xlink:href="#DejaVuSans-30" transform="translate(572.607422 0)"/>
      </g>
     </g>
    </g>
    <g id="text_15">
     <!-- Время (тики) -->
     <g transform="translate(13.295312 252.542812) rotate(-90) scale(0.1 -0.1)">
      <defs>
       <path id="DejaVuSans-412" d="M 1259 2228 
L 1259 519 
L 2272 519 
Q 2781 519 3026 730 
Q 3272 941 3272 1375 
Q 3272 1813 3026 2020 
Q 2781 2228 2272 2228 
L 1259 2228 
z
M 1259 4147 
L 1259 2741 
L 2194 2741 
Q 2656 2741 2882 2914 
Q 3109 3088 3109 3444 
Q 3109 3797 2882 3972 
Q 2656 4147 2194 4147 
L 1259 4147 
z
M 628 4666 
L 2241 4666 
Q 2963 4666 3353 4366 
Q 3744 4066 3744 3513 
Q 3744 3084 3544 2831 
Q 3344 2578 2956 2516 
Q 3422 2416 3680 2098 
Q 3938 1781 3938 1306 
Q 3938 681 3513 340 
Q 3088 0 2303 0 
L 628 0 
L 628 4666 
z
" transform="scale(0.015625)"/>
       <path id="DejaVuSans-44f" d="M 1181 2491 
Q 1181 2231 1381 2084 
Q 1581 1938 1953 1938 
L 2728 1938 
L 2728 3041 
L 1953 3041 
Q 1581 3041 1381 2897 
Q 1181 2753 1181 2491 
z
M 363 0 
L 1431 1534 
Q 1069 1616 828 1830 
Q 588 2044 588 2491 
Q 588 2997 923 3248 
Q 1259 3500 1938 3500 
L 3306 3500 
L 3306 0 
L 2728 0 
L 2728 1478 
L 2013 1478 
L 981 0 
L 363 0 
z
" transform="scale(0.015625)"/>
       <path id="DejaVuSans-28" d="M 1984 4856 
Q 1566 4138 1362 3434 
Q 1159 2731 1159 2009 
Q 1159 1288 1364 580 
Q 1569 -128 1984 -844 
L 1484 -844 
Q 1016 -109 783 600 
Q 550 1309 550 2009 
Q 550 2706 781 3412 
Q 1013 4119 1484 4856 
L 1984 4856 
z
" transform="scale(0.015625)"/>
       <path id="DejaVuSans-43a" d="M 581 3500 
L 1153 3500 
L 1153 1856 
L 2775 3500 
L 3481 3500 
L 2144 2147 
L 3653 0 
L 3009 0 
L 1769 1766 
L 1153 1141 
L 1153 0 
L 581 0 
L 581 3500 
z
" transform="scale(0.015625)"/>
       <path id="DejaVuSans-29" d="M 513 4856 
L 1013 4856 
Q 1481 4119 1714 3412 
Q 1947 2706 1947 2009 
Q 1947 1309 1714 600 
Q 1481 -109 1013 -844 
L 513 -844 
Q 928 -128 1133 580 
Q 1338 1288 1338 2009 
Q 1338 2731 1133 3434 
Q 928 4138 513 4856 
z
" transform="scale(0.015625)"/>
      </defs>
      <use xlink:href="#DejaVuSans-412"/>
      <use xlink:href="#DejaVuSans-440" transform="translate(68.603516 0)"/>
      <use xlink:href="#DejaVuSans-435" transform="translate(132.080078 0)"/>
      <use xlink:href="#DejaVuSans-43c" transform="translate(193.603516 0)"/>
      <use xlink:href="#DejaVuSans-44f" transform="translate(269.042969 0)"/>
      <use xlink:href="#DejaVuSans-20" transform="translate(329.199219 0)"/>
      <use xlink:href="#DejaVuSans-28" transform="translate(360.986328 0)"/>
      <use xlink:href="#DejaVuSans-442" transform="translate(400 0)"/>
      <use xlink:href="#DejaVuSans-438" transform="translate(458.251953 0)"/>
      <use xlink:href="#DejaVuSans-43a" transform="translate(523.242188 0)"/>
      <use xlink:href="#DejaVuSans-438" transform="translate(583.642578 0)"/>
      <use xlink:href="#DejaVuSans-29" transform="translate(648.632812 0)"/>
     </g>
    </g>
   </g>
   <g id="line2d_27">
    <path d="M 115.363636 369.36 
L 149.996714 369.261071 
L 157.127054 369.188913 
L 185.648412 368.556446 
L 197.871851 368.041154 
L 209.07667 367.500174 
L 213.15115 367.249794 
L 217.22563 366.979359 
L 223.337349 366.493282 
L 225.374589 366.374546 
L 228.430449 366.142612 
L 239.635268 365.071994 
L 247.784228 364.16938 
L 262.044907 362.3579 
L 263.063527 362.08607 
L 266.119387 361.777842 
L 268.156627 361.427061 
L 273.249726 360.54579 
L 274.268346 360.311231 
L 275.286966 360.269737 
L 283.435926 358.810436 
L 284.454545 358.717884 
L 285.473165 358.209982 
L 286.491785 358.071316 
L 287.510405 357.2207 
L 288.529025 357.551884 
L 289.547645 357.695375 
L 294.640745 356.508969 
L 295.659365 356.414317 
L 296.677985 356.120045 
L 297.696605 355.531098 
L 298.715225 355.701465 
L 299.733844 355.517276 
L 301.771084 354.856144 
L 306.864184 353.765883 
L 307.882804 353.28896 
L 308.901424 353.064224 
L 309.920044 352.998009 
L 310.938664 352.762966 
L 311.957284 352.685323 
L 312.975904 352.277783 
L 315.013143 351.674693 
L 317.050383 351.114341 
L 318.069003 351.083594 
L 319.087623 350.600762 
L 321.124863 349.974138 
L 322.143483 349.798709 
L 323.162103 349.405127 
L 324.180723 349.190416 
L 325.199343 348.639983 
L 327.236583 348.2417 
L 329.273823 347.691961 
L 330.292442 347.376748 
L 331.311062 346.930574 
L 333.348302 346.472976 
L 334.366922 345.970681 
L 337.422782 345.11269 
L 338.441402 344.679717 
L 339.460022 344.467788 
L 340.478642 343.484104 
L 341.497262 343.20612 
L 342.515882 343.288508 
L 343.534502 343.133826 
L 344.553122 342.683788 
L 346.590361 342.189289 
L 347.608981 341.535774 
L 348.627601 341.44626 
L 349.646221 340.803251 
L 350.664841 340.496011 
L 351.683461 340.31766 
L 352.702081 338.795172 
L 353.720701 338.673115 
L 354.739321 338.817038 
L 355.757941 338.581911 
L 356.776561 337.816806 
L 357.795181 337.457012 
L 358.813801 337.432065 
L 359.832421 336.923516 
L 360.851041 336.769896 
L 361.86966 336.096565 
L 363.9069 335.39904 
L 364.92552 335.160897 
L 365.94414 333.78691 
L 366.96276 333.975262 
L 367.98138 333.712294 
L 369 333.194214 
L 370.01862 332.836569 
L 371.03724 332.280019 
L 372.05586 331.54341 
L 373.07448 322.379708 
L 374.0931 322.255764 
L 375.11172 329.130232 
L 377.148959 329.708404 
L 378.167579 329.120123 
L 379.186199 328.929986 
L 380.204819 328.362647 
L 381.223439 327.665809 
L 382.242059 327.353152 
L 383.260679 326.672954 
L 386.316539 325.261562 
L 388.353779 324.416688 
L 389.372399 322.69982 
L 390.391019 322.350858 
L 391.409639 323.049143 
L 392.428258 322.064367 
L 394.465498 321.474324 
L 395.484118 320.630085 
L 396.502738 320.07894 
L 398.539978 319.298918 
L 400.577218 317.702066 
L 401.595838 314.366428 
L 402.614458 315.815759 
L 403.633078 315.256169 
L 404.651698 313.704266 
L 405.670318 311.808429 
L 406.688938 311.50967 
L 407.707558 311.662494 
L 409.744797 310.695523 
L 410.763417 309.811003 
L 412.800657 308.652253 
L 413.819277 308.535424 
L 414.837897 308.161304 
L 415.856517 307.42495 
L 416.875137 306.184232 
L 417.893757 306.058034 
L 418.912377 305.428655 
L 419.930997 305.377127 
L 420.949617 304.628445 
L 421.968237 302.405018 
L 422.986857 302.229426 
L 424.005476 302.977616 
L 425.024096 303.272319 
L 426.042716 301.666419 
L 428.079956 300.950494 
L 430.117196 299.756042 
L 431.135816 299.26737 
L 432.154436 298.34102 
L 433.173056 297.801821 
L 434.191676 297.59631 
L 435.210296 296.649923 
L 436.228916 296.008011 
L 437.247536 295.168259 
L 438.266156 290.712056 
L 439.284775 290.624708 
L 440.303395 293.429218 
L 441.322015 292.356165 
L 442.340635 291.66303 
L 443.359255 291.438427 
L 444.377875 289.747973 
L 445.396495 288.846471 
L 446.415115 289.083223 
L 448.452355 287.559146 
L 449.470975 286.59083 
L 451.508215 285.209633 
L 452.526835 283.832965 
L 453.545455 282.856917 
L 454.564074 279.971549 
L 455.582694 279.442566 
L 456.601314 281.100629 
L 457.619934 280.311288 
L 459.657174 278.161447 
L 460.675794 275.65735 
L 461.694414 274.883644 
L 462.713034 276.460974 
L 463.731654 275.785596 
L 464.750274 274.301808 
L 465.768894 273.088313 
L 466.787514 272.643885 
L 467.806134 270.983553 
L 468.824754 271.388908 
L 469.843373 270.033333 
L 470.861993 266.513376 
L 471.880613 265.470881 
L 472.899233 267.301847 
L 473.917853 266.411086 
L 474.936473 266.066073 
L 475.955093 263.841294 
L 476.973713 264.475004 
L 477.992333 262.926741 
L 479.010953 261.164859 
L 480.029573 260.521377 
L 481.048193 259.368092 
L 482.066813 258.472663 
L 483.085433 258.218847 
L 484.104053 256.469424 
L 485.122673 253.863524 
L 486.141292 253.52309 
L 487.159912 250.204627 
L 488.178532 250.746342 
L 489.197152 252.870301 
L 490.215772 251.205454 
L 491.234392 250.970417 
L 492.253012 250.526632 
L 493.271632 249.087037 
L 494.290252 248.282054 
L 495.308872 247.692577 
L 496.327492 246.630357 
L 497.346112 244.95824 
L 498.364732 244.165341 
L 500.401972 242.127472 
L 501.420591 241.593661 
L 502.439211 240.598258 
L 503.457831 223.380981 
L 504.476451 226.311441 
L 505.495071 236.288543 
L 506.513691 234.205139 
L 507.532311 233.857197 
L 508.550931 233.368795 
L 509.569551 230.915232 
L 510.588171 229.953184 
L 511.606791 230.238272 
L 512.625411 229.144336 
L 513.644031 226.208244 
L 514.662651 224.641673 
L 515.681271 225.878561 
L 516.69989 224.712846 
L 517.71851 221.813471 
L 518.73713 220.544838 
L 519.75575 217.880225 
L 520.77437 216.658172 
L 521.79299 218.716005 
L 522.81161 217.67308 
L 523.83023 216.020388 
L 524.84885 214.900587 
L 526.88609 211.579798 
L 527.90471 211.314984 
L 528.92333 210.559987 
L 529.94195 201.286575 
L 530.96057 205.506608 
L 531.979189 205.935214 
L 532.997809 204.718412 
L 534.016429 203.123154 
L 535.035049 201.871448 
L 536.053669 198.38123 
L 537.072289 197.37018 
L 538.090909 198.302979 
L 539.109529 195.976293 
L 540.128149 194.851446 
L 541.146769 193.924224 
L 542.165389 192.08973 
L 543.184009 190.632047 
L 544.202629 189.815174 
L 545.221249 188.053161 
L 546.239869 188.496473 
L 547.258488 187.29835 
L 548.277108 183.792652 
L 549.295728 182.498469 
L 550.314348 182.64754 
L 551.332968 179.362295 
L 552.351588 176.555649 
L 553.370208 175.426981 
L 554.388828 175.675582 
L 555.407448 175.094565 
L 557.444688 171.503571 
L 559.481928 169.737567 
L 560.500548 166.179301 
L 561.519168 165.084819 
L 562.537788 165.786186 
L 563.556407 164.536201 
L 564.575027 162.505715 
L 565.593647 161.270095 
L 567.630887 158.006332 
L 568.649507 152.333957 
L 569.668127 151.123966 
L 570.686747 153.677428 
L 571.705367 152.299928 
L 572.723987 150.590645 
L 573.742607 149.102341 
L 574.761227 146.220342 
L 575.779847 144.18251 
L 576.798467 141.380868 
L 577.817087 140.256588 
L 578.835706 140.271548 
L 579.854326 139.040722 
L 580.872946 135.545155 
L 581.891566 134.252392 
L 582.910186 133.446531 
L 583.928806 131.66551 
L 584.947426 127.571268 
L 585.966046 126.898022 
L 586.984666 127.729559 
L 588.003286 126.212864 
L 589.021906 123.880927 
L 590.040526 106.529275 
L 591.059146 119.810472 
L 592.077766 118.456128 
L 594.115005 115.233254 
L 595.133625 115.004353 
L 596.152245 113.568583 
L 597.170865 110.315586 
L 598.189485 108.706666 
L 599.208105 108.232391 
L 600.226725 107.227161 
L 601.245345 104.364656 
L 602.263965 103.040314 
L 604.301205 99.639626 
L 605.319825 96.55332 
L 607.357065 92.743052 
L 608.375685 90.453549 
L 609.394304 88.488312 
L 610.412924 87.795595 
L 611.431544 86.520653 
L 612.450164 85.519646 
L 613.468784 83.126983 
L 614.487404 82.078304 
L 615.506024 79.749759 
L 616.524644 77.959677 
L 617.543264 70.509888 
L 618.561884 71.116801 
L 619.580504 72.29644 
L 620.599124 70.795023 
L 621.617744 68.562477 
L 622.636364 66.96 
L 622.636364 66.96 
" clip-path="url(#p8d7da546d6)" style="fill: none; stroke: #0000ff; stroke-width: 1.5; stroke-linecap: square"/>
   </g>
   <g id="line2d_28">
    <path d="M 115.363636 369.359977 
L 156.108434 369.251981 
L 173.424973 369.065624 
L 178.518072 368.984035 
L 194.815991 368.613425 
L 213.15115 368.037184 
L 218.24425 367.76796 
L 221.30011 367.680098 
L 225.374589 367.4285 
L 227.411829 367.408888 
L 229.449069 367.22539 
L 232.504929 367.099748 
L 241.672508 366.538639 
L 242.691128 366.332675 
L 245.746988 366.200684 
L 250.840088 365.893936 
L 252.877327 365.683101 
L 260.007667 365.196256 
L 261.026287 364.918811 
L 268.156627 364.329449 
L 269.175246 363.881393 
L 270.193866 363.775404 
L 271.212486 363.930785 
L 276.305586 363.433857 
L 277.324206 363.146757 
L 282.417306 362.55944 
L 283.435926 362.616916 
L 284.454545 362.468443 
L 285.473165 361.879665 
L 286.491785 361.724602 
L 287.510405 361.222836 
L 289.547645 361.664574 
L 294.640745 360.802106 
L 295.659365 360.793628 
L 297.696605 360.250752 
L 298.715225 360.383307 
L 300.752464 360.022229 
L 301.771084 359.52919 
L 302.789704 359.360813 
L 303.808324 359.568623 
L 304.826944 359.47915 
L 305.845564 359.206206 
L 306.864184 359.07627 
L 307.882804 358.370834 
L 308.901424 358.143871 
L 309.920044 358.676663 
L 310.938664 358.454105 
L 311.957284 358.430408 
L 312.975904 358.149279 
L 313.994524 358.039682 
L 315.013143 357.675755 
L 316.031763 357.795357 
L 317.050383 357.620987 
L 318.069003 357.307223 
L 321.124863 356.691072 
L 324.180723 355.867167 
L 325.199343 355.444808 
L 326.217963 355.648904 
L 328.255203 355.421053 
L 333.348302 354.433914 
L 334.366922 353.977894 
L 338.441402 353.370257 
L 339.460022 353.053183 
L 340.478642 351.173448 
L 341.497262 350.951075 
L 342.515882 352.11367 
L 343.534502 352.35841 
L 347.608981 351.372913 
L 349.646221 351.029508 
L 350.664841 350.533791 
L 351.683461 350.404355 
L 352.702081 349.599698 
L 353.720701 349.237588 
L 355.757941 349.500249 
L 356.776561 347.646955 
L 357.795181 347.051771 
L 358.813801 348.363321 
L 359.832421 348.332229 
L 363.9069 347.27458 
L 364.92552 347.078597 
L 365.94414 346.279167 
L 366.96276 345.971981 
L 367.98138 346.094023 
L 370.01862 345.493512 
L 371.03724 345.057842 
L 372.05586 344.748813 
L 373.07448 335.33891 
L 374.0931 335.141183 
L 375.11172 342.414481 
L 377.148959 343.616754 
L 378.167579 343.500572 
L 379.186199 342.53793 
L 382.242059 341.993133 
L 383.260679 341.336767 
L 385.297919 340.891853 
L 386.316539 340.401144 
L 387.335159 340.055534 
L 388.353779 340.078019 
L 389.372399 336.194417 
L 390.391019 336.583424 
L 391.409639 339.032357 
L 393.446878 337.922091 
L 394.465498 337.72852 
L 395.484118 336.89904 
L 396.502738 336.697688 
L 397.521358 337.131572 
L 398.539978 336.808664 
L 399.558598 335.653715 
L 400.577218 334.799822 
L 401.595838 333.496936 
L 402.614458 333.67345 
L 403.633078 332.93786 
L 404.651698 331.675306 
L 405.670318 328.571996 
L 406.688938 328.354601 
L 407.707558 331.173975 
L 408.726177 330.778773 
L 409.744797 330.17758 
L 412.800657 329.033413 
L 413.819277 329.168686 
L 414.837897 328.967748 
L 415.856517 328.292237 
L 416.875137 327.280708 
L 417.893757 327.445374 
L 420.949617 326.311235 
L 421.968237 321.461744 
L 422.986857 321.628765 
L 424.005476 324.138296 
L 425.024096 324.114096 
L 426.042716 323.616142 
L 428.079956 322.898866 
L 429.098576 322.015249 
L 430.117196 322.831739 
L 431.135816 322.477033 
L 432.154436 321.027779 
L 433.173056 321.286589 
L 434.191676 320.96332 
L 435.210296 320.458948 
L 436.228916 319.792012 
L 437.247536 318.857381 
L 438.266156 312.800044 
L 439.284775 312.584996 
L 440.303395 317.417902 
L 441.322015 316.974538 
L 442.340635 316.978341 
L 443.359255 316.867736 
L 444.377875 313.768824 
L 445.396495 313.376464 
L 446.415115 315.498796 
L 447.433735 315.257629 
L 448.452355 313.115854 
L 449.470975 313.308685 
L 450.489595 312.884545 
L 451.508215 312.862774 
L 452.526835 309.759909 
L 453.545455 309.238213 
L 454.564074 305.804638 
L 455.582694 304.347685 
L 456.601314 308.638161 
L 457.619934 308.544773 
L 458.638554 307.119516 
L 459.657174 306.767073 
L 460.675794 302.031891 
L 461.694414 301.228289 
L 462.713034 306.610525 
L 463.731654 306.031528 
L 464.750274 303.10725 
L 465.768894 303.107388 
L 466.787514 303.459256 
L 467.806134 301.976823 
L 468.824754 301.233066 
L 469.843373 301.470593 
L 470.861993 294.56433 
L 471.880613 293.774765 
L 472.899233 299.076111 
L 473.917853 298.633747 
L 474.936473 298.366788 
L 475.955093 297.609548 
L 476.973713 296.666246 
L 477.992333 295.878612 
L 479.010953 296.429054 
L 480.029573 295.59921 
L 481.048193 292.479642 
L 482.066813 291.814848 
L 483.085433 292.562269 
L 484.104053 291.983752 
L 485.122673 287.279666 
L 486.141292 287.068762 
L 487.159912 282.636179 
L 488.178532 282.834982 
L 489.197152 288.048323 
L 490.215772 287.170805 
L 491.234392 287.679057 
L 492.253012 287.624418 
L 493.271632 285.400822 
L 494.290252 285.281062 
L 495.308872 285.72216 
L 496.327492 284.898018 
L 497.346112 282.190929 
L 498.364732 281.605821 
L 499.383352 282.254656 
L 500.401972 281.826455 
L 501.420591 280.509262 
L 502.439211 279.98178 
L 503.457831 259.740119 
L 504.476451 262.063367 
L 505.495071 276.636786 
L 506.513691 275.088617 
L 507.532311 275.36446 
L 508.550931 274.102806 
L 509.569551 270.434289 
L 510.588171 269.893899 
L 511.606791 272.44446 
L 512.625411 271.474022 
L 513.644031 266.28633 
L 514.662651 265.193639 
L 515.681271 268.230238 
L 516.69989 267.729122 
L 517.71851 263.165106 
L 518.73713 262.490344 
L 519.75575 258.534749 
L 520.77437 257.840482 
L 521.79299 262.353598 
L 522.81161 261.728627 
L 523.83023 260.602775 
L 524.84885 259.901289 
L 525.86747 257.0892 
L 526.88609 256.271111 
L 527.90471 256.654414 
L 528.92333 256.27197 
L 529.94195 244.464492 
L 530.96057 249.706553 
L 531.979189 252.279612 
L 532.997809 251.59558 
L 534.016429 249.546841 
L 535.035049 248.437986 
L 536.053669 244.281652 
L 537.072289 243.347335 
L 538.090909 245.545505 
L 539.109529 244.342624 
L 540.128149 243.700588 
L 541.146769 242.904773 
L 542.165389 241.148434 
L 544.202629 239.842619 
L 545.221249 238.650698 
L 546.239869 239.110052 
L 547.258488 238.158645 
L 548.277108 235.023563 
L 549.295728 233.560286 
L 550.314348 234.051396 
L 552.351588 228.689315 
L 553.370208 227.679578 
L 554.388828 229.431028 
L 555.407448 227.595059 
L 556.426068 227.077531 
L 557.444688 225.971122 
L 558.463308 226.133208 
L 559.481928 224.094669 
L 560.500548 221.012601 
L 561.519168 220.222672 
L 562.537788 221.073906 
L 563.556407 219.564233 
L 564.575027 219.758021 
L 565.593647 218.705774 
L 566.612267 216.276534 
L 567.630887 215.016967 
L 568.649507 210.097045 
L 569.668127 209.053668 
L 570.686747 211.613877 
L 571.705367 210.792096 
L 572.723987 210.229714 
L 573.742607 209.501861 
L 574.761227 205.148012 
L 575.779847 204.587394 
L 576.798467 202.0851 
L 577.817087 200.953703 
L 578.835706 202.029224 
L 579.854326 201.734851 
L 580.872946 197.589505 
L 581.891566 196.606675 
L 582.910186 197.043652 
L 583.928806 194.790171 
L 584.947426 192.068593 
L 586.984666 190.62966 
L 588.003286 190.952107 
L 589.021906 189.50717 
L 590.040526 177.726501 
L 591.059146 185.823625 
L 593.096386 183.44695 
L 594.115005 182.573803 
L 595.133625 182.792983 
L 597.170865 179.014186 
L 598.189485 177.481289 
L 599.208105 177.781383 
L 600.226725 176.624956 
L 601.245345 174.511395 
L 602.263965 173.594818 
L 603.282585 172.055098 
L 604.301205 171.086131 
L 605.319825 168.728061 
L 607.357065 165.995682 
L 608.375685 162.887779 
L 609.394304 163.058904 
L 610.412924 162.40466 
L 611.431544 161.335554 
L 612.450164 159.894169 
L 613.468784 158.846341 
L 615.506024 156.212697 
L 616.524644 154.029216 
L 617.543264 149.45867 
L 618.561884 149.234958 
L 619.580504 150.342498 
L 620.599124 149.557342 
L 621.617744 147.851924 
L 622.636364 146.598187 
L 622.636364 146.598187 
" clip-path="url(#p8d7da546d6)" style="fill: none; stroke: #008000; stroke-width: 1.5; stroke-linecap: square"/>
   </g>
   <g id="line2d_29">
    <path d="M 115.363636 369.359977 
L 158.145674 369.250959 
L 173.424973 369.072032 
L 177.499452 369.048006 
L 199.909091 368.573669 
L 205.002191 368.441665 
L 209.07667 368.316051 
L 214.16977 368.170365 
L 241.672508 366.882957 
L 243.709748 366.68771 
L 246.765608 366.593709 
L 249.821468 366.354105 
L 250.840088 366.341576 
L 251.858708 366.200773 
L 253.895947 366.118762 
L 284.454545 363.428018 
L 285.473165 363.044096 
L 286.491785 362.916501 
L 287.510405 362.458184 
L 289.547645 362.827156 
L 290.566265 362.645171 
L 292.603505 362.442467 
L 298.715225 361.540315 
L 300.752464 361.405149 
L 301.771084 361.14015 
L 304.826944 360.882689 
L 306.864184 360.661688 
L 307.882804 360.238876 
L 308.901424 360.167313 
L 309.920044 360.265003 
L 310.938664 359.992637 
L 311.957284 360.012012 
L 315.013143 359.354204 
L 316.031763 359.357353 
L 319.087623 358.759835 
L 320.106243 358.668542 
L 322.143483 358.351764 
L 324.180723 358.082381 
L 325.199343 357.597668 
L 326.217963 357.64251 
L 328.255203 357.488772 
L 329.273823 357.176117 
L 331.311062 356.900193 
L 334.366922 356.242165 
L 336.404162 355.972535 
L 337.422782 355.695499 
L 338.441402 355.604925 
L 339.460022 355.377828 
L 340.478642 354.812089 
L 341.497262 354.549619 
L 342.515882 354.689321 
L 343.534502 354.714245 
L 344.553122 354.594368 
L 349.646221 353.439878 
L 350.664841 353.260856 
L 351.683461 352.929124 
L 352.702081 352.448059 
L 353.720701 352.174316 
L 354.739321 352.308783 
L 355.757941 352.209511 
L 356.776561 351.589156 
L 357.795181 351.191181 
L 358.813801 351.591822 
L 359.832421 351.310019 
L 360.851041 351.210087 
L 361.86966 350.785959 
L 362.88828 350.623412 
L 363.9069 350.59099 
L 364.92552 350.357839 
L 365.94414 349.385446 
L 367.98138 349.521754 
L 369 349.184826 
L 370.01862 349.012765 
L 372.05586 348.247944 
L 373.07448 342.964034 
L 374.0931 342.668295 
L 375.11172 346.865546 
L 377.148959 347.288001 
L 378.167579 347.092683 
L 379.186199 346.601594 
L 380.204819 346.509094 
L 385.297919 345.032127 
L 386.316539 344.661434 
L 387.335159 344.686365 
L 388.353779 344.410371 
L 389.372399 343.142118 
L 390.391019 342.813593 
L 391.409639 343.515061 
L 392.428258 343.072607 
L 394.465498 342.561886 
L 395.484118 342.082092 
L 399.558598 340.969779 
L 400.577218 340.492999 
L 401.595838 338.923281 
L 402.614458 339.408772 
L 403.633078 339.072558 
L 404.651698 338.141153 
L 405.670318 336.665268 
L 406.688938 336.694933 
L 407.707558 337.508746 
L 408.726177 336.807478 
L 412.800657 335.484807 
L 413.819277 335.446411 
L 414.837897 335.024427 
L 415.856517 334.996527 
L 416.875137 334.218436 
L 417.893757 334.182803 
L 418.912377 333.642192 
L 419.930997 333.796709 
L 420.949617 333.441339 
L 421.968237 331.709893 
L 422.986857 331.676159 
L 424.005476 331.93505 
L 425.024096 331.515224 
L 426.042716 330.830371 
L 427.061336 330.353031 
L 428.079956 330.956461 
L 429.098576 330.51593 
L 430.117196 330.436798 
L 432.154436 329.524634 
L 433.173056 329.232661 
L 434.191676 329.239581 
L 435.210296 328.658865 
L 436.228916 328.399129 
L 437.247536 327.648128 
L 438.266156 325.337784 
L 439.284775 325.5628 
L 440.303395 326.753588 
L 441.322015 326.137088 
L 442.340635 326.009671 
L 443.359255 325.655065 
L 444.377875 324.520155 
L 445.396495 323.904439 
L 446.415115 324.470721 
L 448.452355 323.591332 
L 449.470975 322.912209 
L 451.508215 322.384144 
L 452.526835 321.323343 
L 453.545455 320.536626 
L 454.564074 319.187508 
L 455.582694 318.917596 
L 456.601314 319.833246 
L 457.619934 319.472592 
L 458.638554 318.067501 
L 459.657174 317.64749 
L 460.675794 314.882322 
L 461.694414 314.830217 
L 462.713034 317.357303 
L 463.731654 316.885775 
L 464.750274 316.062152 
L 466.787514 314.711056 
L 467.806134 314.399534 
L 468.824754 314.283975 
L 469.843373 313.72693 
L 470.861993 312.007988 
L 471.880613 311.562166 
L 472.899233 311.942383 
L 473.917853 311.493188 
L 474.936473 311.23655 
L 475.955093 309.969652 
L 476.973713 310.22459 
L 479.010953 308.631176 
L 480.029573 308.111906 
L 481.048193 307.346306 
L 482.066813 306.9211 
L 483.085433 306.7471 
L 484.104053 305.855833 
L 485.122673 304.126207 
L 487.159912 303.418033 
L 488.178532 302.719161 
L 489.197152 303.495195 
L 490.215772 302.907879 
L 491.234392 302.785611 
L 492.253012 302.354267 
L 493.271632 301.304386 
L 494.290252 301.31052 
L 495.308872 300.956188 
L 496.327492 300.192597 
L 497.346112 299.220607 
L 498.364732 298.544361 
L 499.383352 298.504194 
L 500.401972 297.782323 
L 501.420591 297.440491 
L 502.439211 296.739103 
L 503.457831 286.617394 
L 504.476451 289.689609 
L 505.495071 293.741299 
L 506.513691 292.53298 
L 507.532311 292.79929 
L 508.550931 292.445769 
L 509.569551 291.344012 
L 510.588171 290.484335 
L 511.606791 291.016062 
L 512.625411 290.298769 
L 513.644031 288.613977 
L 514.662651 287.858853 
L 515.681271 288.406123 
L 516.69989 287.375836 
L 517.71851 285.641506 
L 519.75575 284.504973 
L 520.77437 283.851786 
L 521.79299 284.377867 
L 522.81161 283.480654 
L 523.83023 282.738289 
L 524.84885 282.234931 
L 525.86747 281.203374 
L 526.88609 280.40936 
L 527.90471 280.085383 
L 528.92333 279.468723 
L 529.94195 269.810669 
L 530.96057 274.903258 
L 531.979189 277.080401 
L 532.997809 276.136966 
L 534.016429 275.71797 
L 535.035049 274.582914 
L 536.053669 273.647106 
L 538.090909 272.523159 
L 539.109529 271.544841 
L 540.128149 271.057561 
L 541.146769 270.329831 
L 542.165389 269.194353 
L 543.184009 268.243181 
L 544.202629 267.759929 
L 545.221249 266.931237 
L 546.239869 266.654642 
L 547.258488 265.697926 
L 548.277108 264.90823 
L 549.295728 263.693679 
L 550.314348 263.930234 
L 551.332968 261.89217 
L 552.351588 262.334159 
L 553.370208 260.79696 
L 554.388828 260.376116 
L 555.407448 259.254124 
L 556.426068 259.915541 
L 557.444688 259.109253 
L 558.463308 255.49465 
L 559.481928 255.19329 
L 560.500548 254.660119 
L 561.519168 253.780254 
L 562.537788 254.36708 
L 563.556407 253.36721 
L 564.575027 252.999444 
L 565.593647 251.961311 
L 566.612267 251.279731 
L 567.630887 249.54368 
L 568.649507 248.335813 
L 569.668127 248.088245 
L 570.686747 247.682114 
L 571.705367 246.41316 
L 572.723987 246.234169 
L 573.742607 245.449757 
L 574.761227 242.963339 
L 575.779847 242.370121 
L 577.817087 240.171947 
L 578.835706 240.124208 
L 579.854326 239.552489 
L 580.872946 236.912831 
L 581.891566 236.656991 
L 582.910186 236.241631 
L 583.928806 235.103256 
L 584.947426 234.36187 
L 585.966046 234.045732 
L 586.984666 232.818572 
L 588.003286 232.112699 
L 589.021906 231.159641 
L 590.040526 230.030235 
L 591.059146 228.633532 
L 592.077766 227.750572 
L 593.096386 227.103985 
L 594.115005 226.095284 
L 595.133625 225.68247 
L 597.170865 223.699174 
L 598.189485 222.581199 
L 599.208105 221.766716 
L 600.226725 221.610713 
L 601.245345 220.819359 
L 603.282585 218.320755 
L 604.301205 217.58353 
L 605.319825 215.902179 
L 606.338445 214.904473 
L 607.357065 213.676782 
L 608.375685 211.157156 
L 609.394304 210.776217 
L 610.412924 210.989051 
L 613.468784 208.678401 
L 614.487404 208.044616 
L 615.506024 206.401767 
L 617.543264 203.597777 
L 618.561884 203.244349 
L 619.580504 202.591015 
L 620.599124 201.462799 
L 622.636364 199.649396 
L 622.636364 199.649396 
" clip-path="url(#p8d7da546d6)" style="fill: none; stroke: #ff0000; stroke-width: 1.5; stroke-linecap: square"/>
   </g>
   <g id="patch_3">
    <path d="M 90 384.48 
L 90 51.84 
" style="fill: none; stroke: #000000; stroke-width: 0.8; stroke-linejoin: miter; stroke-linecap: square"/>
   </g>
   <g id="patch_4">
    <path d="M 648 384.48 
L 648 51.84 
" style="fill: none; stroke: #000000; stroke-width: 0.8; stroke-linejoin: miter; stroke-linecap: square"/>
   </g>
   <g id="patch_5">
    <path d="M 90 384.48 
L 648 384.48 
" style="fill: none; stroke: #000000; stroke-width: 0.8; stroke-linejoin: miter; stroke-linecap: square"/>
   </g>
   <g id="patch_6">
    <path d="M 90 51.84 
L 648 51.84 
" style="fill: none; stroke: #000000; stroke-width: 0.8; stroke-linejoin: miter; stroke-linecap: square"/>
   </g>
   <g id="text_16">
    <!-- Сравнение алгоритмов умножения матриц -->
    <g transform="translate(231.976875 45.84) scale(0.12 -0.12)">
     <defs>
      <path id="DejaVuSans-421" d="M 4122 4306 
L 4122 3641 
Q 3803 3938 3442 4084 
Q 3081 4231 2675 4231 
Q 1875 4231 1450 3742 
Q 1025 3253 1025 2328 
Q 1025 1406 1450 917 
Q 1875 428 2675 428 
Q 3081 428 3442 575 
Q 3803 722 4122 1019 
L 4122 359 
Q 3791 134 3420 21 
Q 3050 -91 2638 -91 
Q 1578 -91 968 557 
Q 359 1206 359 2328 
Q 359 3453 968 4101 
Q 1578 4750 2638 4750 
Q 3056 4750 3426 4639 
Q 3797 4528 4122 4306 
z
" transform="scale(0.015625)"/>
      <path id="DejaVuSans-432" d="M 1156 1613 
L 1156 459 
L 1975 459 
Q 2369 459 2575 607 
Q 2781 756 2781 1038 
Q 2781 1319 2575 1466 
Q 2369 1613 1975 1613 
L 1156 1613 
z
M 1156 3041 
L 1156 2072 
L 1913 2072 
Q 2238 2072 2444 2201 
Q 2650 2331 2650 2563 
Q 2650 2794 2444 2917 
Q 2238 3041 1913 3041 
L 1156 3041 
z
M 581 3500 
L 1950 3500 
Q 2566 3500 2897 3275 
Q 3228 3050 3228 2634 
Q 3228 2313 3059 2123 
Q 2891 1934 2559 1888 
Q 2956 1813 3175 1575 
Q 3394 1338 3394 981 
Q 3394 513 3033 256 
Q 2672 0 2003 0 
L 581 0 
L 581 3500 
z
" transform="scale(0.015625)"/>
      <path id="DejaVuSans-43d" d="M 581 3500 
L 1159 3500 
L 1159 2072 
L 3025 2072 
L 3025 3500 
L 3603 3500 
L 3603 0 
L 3025 0 
L 3025 1613 
L 1159 1613 
L 1159 0 
L 581 0 
L 581 3500 
z
" transform="scale(0.015625)"/>
      <path id="DejaVuSans-43b" d="M 238 0 
L 238 478 
Q 806 566 981 959 
Q 1194 1513 1194 2928 
L 1194 3500 
L 3559 3500 
L 3559 0 
L 2984 0 
L 2984 3041 
L 1769 3041 
L 1769 2694 
Q 1769 1344 1494 738 
Q 1200 91 238 0 
z
" transform="scale(0.015625)"/>
      <path id="DejaVuSans-433" d="M 581 0 
L 581 3500 
L 3050 3500 
L 3050 3041 
L 1159 3041 
L 1159 0 
L 581 0 
z
" transform="scale(0.015625)"/>
      <path id="DejaVuSans-43e" d="M 1959 3097 
Q 1497 3097 1228 2736 
Q 959 2375 959 1747 
Q 959 1119 1226 758 
Q 1494 397 1959 397 
Q 2419 397 2687 759 
Q 2956 1122 2956 1747 
Q 2956 2369 2687 2733 
Q 2419 3097 1959 3097 
z
M 1959 3584 
Q 2709 3584 3137 3096 
Q 3566 2609 3566 1747 
Q 3566 888 3137 398 
Q 2709 -91 1959 -91 
Q 1206 -91 779 398 
Q 353 888 353 1747 
Q 353 2609 779 3096 
Q 1206 3584 1959 3584 
z
" transform="scale(0.015625)"/>
      <path id="DejaVuSans-443" d="M 2059 -325 
Q 1816 -950 1584 -1140 
Q 1353 -1331 966 -1331 
L 506 -1331 
L 506 -850 
L 844 -850 
Q 1081 -850 1212 -737 
Q 1344 -625 1503 -206 
L 1606 56 
L 191 3500 
L 800 3500 
L 1894 763 
L 2988 3500 
L 3597 3500 
L 2059 -325 
z
" transform="scale(0.015625)"/>
      <path id="DejaVuSans-436" d="M 2597 3500 
L 3169 3500 
L 3169 1856 
L 4697 3500 
L 5366 3500 
L 4109 2153 
L 5547 0 
L 4931 0 
L 3753 1769 
L 3169 1141 
L 3169 0 
L 2597 0 
L 2597 1141 
L 2013 1769 
L 834 0 
L 219 0 
L 1656 2153 
L 400 3500 
L 1069 3500 
L 2597 1856 
L 2597 3500 
z
" transform="scale(0.015625)"/>
     </defs>
     <use xlink:href="#DejaVuSans-421"/>
     <use xlink:href="#DejaVuSans-440" transform="translate(69.824219 0)"/>
     <use xlink:href="#DejaVuSans-430" transform="translate(133.300781 0)"/>
     <use xlink:href="#DejaVuSans-432" transform="translate(194.580078 0)"/>
     <use xlink:href="#DejaVuSans-43d" transform="translate(253.515625 0)"/>
     <use xlink:href="#DejaVuSans-435" transform="translate(318.896484 0)"/>
     <use xlink:href="#DejaVuSans-43d" transform="translate(380.419922 0)"/>
     <use xlink:href="#DejaVuSans-438" transform="translate(445.800781 0)"/>
     <use xlink:href="#DejaVuSans-435" transform="translate(510.791016 0)"/>
     <use xlink:href="#DejaVuSans-20" transform="translate(572.314453 0)"/>
     <use xlink:href="#DejaVuSans-430" transform="translate(604.101562 0)"/>
     <use xlink:href="#DejaVuSans-43b" transform="translate(665.380859 0)"/>
     <use xlink:href="#DejaVuSans-433" transform="translate(729.296875 0)"/>
     <use xlink:href="#DejaVuSans-43e" transform="translate(781.835938 0)"/>
     <use xlink:href="#DejaVuSans-440" transform="translate(843.017578 0)"/>
     <use xlink:href="#DejaVuSans-438" transform="translate(906.494141 0)"/>
     <use xlink:href="#DejaVuSans-442" transform="translate(971.484375 0)"/>
     <use xlink:href="#DejaVuSans-43c" transform="translate(1029.736328 0)"/>
     <use xlink:href="#DejaVuSans-43e" transform="translate(1105.175781 0)"/>
     <use xlink:href="#DejaVuSans-432" transform="translate(1166.357422 0)"/>
     <use xlink:href="#DejaVuSans-20" transform="translate(1225.292969 0)"/>
     <use xlink:href="#DejaVuSans-443" transform="translate(1257.080078 0)"/>
     <use xlink:href="#DejaVuSans-43c" transform="translate(1316.259766 0)"/>
     <use xlink:href="#DejaVuSans-43d" transform="translate(1391.699219 0)"/>
     <use xlink:href="#DejaVuSans-43e" transform="translate(1457.080078 0)"/>
     <use xlink:href="#DejaVuSans-436" transform="translate(1518.261719 0)"/>
     <use xlink:href="#DejaVuSans-435" transform="translate(1608.349609 0)"/>
     <use xlink:href="#DejaVuSans-43d" transform="translate(1669.873047 0)"/>
     <use xlink:href="#DejaVuSans-438" transform="translate(1735.253906 0)"/>
     <use xlink:href="#DejaVuSans-44f" transform="translate(1800.244141 0)"/>
     <use xlink:href="#DejaVuSans-20" transform="translate(1860.400391 0)"/>
     <use xlink:href="#DejaVuSans-43c" transform="translate(1892.1875 0)"/>
     <use xlink:href="#DejaVuSans-430" transform="translate(1967.626953 0)"/>
     <use xlink:href="#DejaVuSans-442" transform="translate(2028.90625 0)"/>
     <use xlink:href="#DejaVuSans-440" transform="translate(2087.158203 0)"/>
     <use xlink:href="#DejaVuSans-438" transform="translate(2150.634766 0)"/>
     <use xlink:href="#DejaVuSans-446" transform="translate(2215.625 0)"/>
    </g>
   </g>
   <g id="legend_1">
    <g id="patch_7">
     <path d="M 97 103.874375 
L 249.923438 103.874375 
Q 251.923438 103.874375 251.923438 101.874375 
L 251.923438 58.84 
Q 251.923438 56.84 249.923438 56.84 
L 97 56.84 
Q 95 56.84 95 58.84 
L 95 101.874375 
Q 95 103.874375 97 103.874375 
z
" style="fill: #ffffff; opacity: 0.8; stroke: #cccccc; stroke-linejoin: miter"/>
    </g>
    <g id="line2d_30">
     <path d="M 99 64.938437 
L 109 64.938437 
L 119 64.938437 
" style="fill: none; stroke: #0000ff; stroke-width: 1.5; stroke-linecap: square"/>
    </g>
    <g id="text_17">
     <!-- Обычный -->
     <g transform="translate(127 68.438437) scale(0.1 -0.1)">
      <defs>
       <path id="DejaVuSans-41e" d="M 2522 4238 
Q 1834 4238 1429 3725 
Q 1025 3213 1025 2328 
Q 1025 1447 1429 934 
Q 1834 422 2522 422 
Q 3209 422 3611 934 
Q 4013 1447 4013 2328 
Q 4013 3213 3611 3725 
Q 3209 4238 2522 4238 
z
M 2522 4750 
Q 3503 4750 4090 4092 
Q 4678 3434 4678 2328 
Q 4678 1225 4090 567 
Q 3503 -91 2522 -91 
Q 1538 -91 948 565 
Q 359 1222 359 2328 
Q 359 3434 948 4092 
Q 1538 4750 2522 4750 
z
" transform="scale(0.015625)"/>
       <path id="DejaVuSans-431" d="M 1991 3584 
Q 2741 3584 3169 3096 
Q 3597 2609 3597 1747 
Q 3597 888 3169 398 
Q 2741 -91 1991 -91 
Q 1238 -91 822 384 
Q 406 859 384 1747 
L 366 2463 
Q 350 2834 350 2963 
Q 350 3463 531 3831 
Q 816 4409 1308 4659 
Q 1800 4909 2625 4916 
Q 3006 4919 3175 4972 
L 3334 4516 
Q 3181 4453 3041 4450 
L 2259 4397 
Q 1866 4369 1628 4231 
Q 1006 3866 947 3388 
L 925 3213 
Q 1331 3584 1991 3584 
z
M 1991 3097 
Q 1528 3097 1259 2736 
Q 991 2375 991 1747 
Q 991 1119 1258 758 
Q 1525 397 1991 397 
Q 2450 397 2719 759 
Q 2988 1122 2988 1747 
Q 2988 2369 2719 2733 
Q 2450 3097 1991 3097 
z
" transform="scale(0.015625)"/>
       <path id="DejaVuSans-447" d="M 2625 0 
L 2625 1472 
L 1553 1472 
Q 1075 1472 756 1769 
Q 469 2038 469 2613 
L 469 3500 
L 1044 3500 
L 1044 2666 
Q 1044 2300 1206 2116 
Q 1372 1931 1697 1931 
L 2625 1931 
L 2625 3500 
L 3200 3500 
L 3200 0 
L 2625 0 
z
" transform="scale(0.015625)"/>
       <path id="DejaVuSans-439" d="M 3578 3500 
L 3578 0 
L 3006 0 
L 3006 2809 
L 1319 0 
L 581 0 
L 581 3500 
L 1153 3500 
L 1153 697 
L 2838 3500 
L 3578 3500 
z
M 1102 4833 
L 1471 4833 
Q 1505 4599 1656 4481 
Q 1808 4364 2080 4364 
Q 2349 4364 2499 4480 
Q 2649 4596 2689 4833 
L 3058 4833 
Q 3027 4386 2780 4161 
Q 2533 3936 2080 3936 
Q 1627 3936 1380 4161 
Q 1133 4386 1102 4833 
z
" transform="scale(0.015625)"/>
      </defs>
      <use xlink:href="#DejaVuSans-41e"/>
      <use xlink:href="#DejaVuSans-431" transform="translate(78.710938 0)"/>
      <use xlink:href="#DejaVuSans-44b" transform="translate(140.380859 0)"/>
      <use xlink:href="#DejaVuSans-447" transform="translate(219.335938 0)"/>
      <use xlink:href="#DejaVuSans-43d" transform="translate(278.417969 0)"/>
      <use xlink:href="#DejaVuSans-44b" transform="translate(343.798828 0)"/>
      <use xlink:href="#DejaVuSans-439" transform="translate(422.753906 0)"/>
     </g>
    </g>
    <g id="line2d_31">
     <path d="M 99 79.616562 
L 109 79.616562 
L 119 79.616562 
" style="fill: none; stroke: #008000; stroke-width: 1.5; stroke-linecap: square"/>
    </g>
    <g id="text_18">
     <!-- Виноград -->
     <g transform="translate(127 83.116562) scale(0.1 -0.1)">
      <defs>
       <path id="DejaVuSans-434" d="M 1384 459 
L 3053 459 
L 3053 3041 
L 1844 3041 
L 1844 2603 
Q 1844 1316 1475 628 
L 1384 459 
z
M 550 459 
Q 834 584 959 850 
Q 1266 1509 1266 2838 
L 1266 3500 
L 3631 3500 
L 3631 459 
L 4091 459 
L 4091 -884 
L 3631 -884 
L 3631 0 
L 794 0 
L 794 -884 
L 334 -884 
L 334 459 
L 550 459 
z
" transform="scale(0.015625)"/>
      </defs>
      <use xlink:href="#DejaVuSans-412"/>
      <use xlink:href="#DejaVuSans-438" transform="translate(68.603516 0)"/>
      <use xlink:href="#DejaVuSans-43d" transform="translate(133.59375 0)"/>
      <use xlink:href="#DejaVuSans-43e" transform="translate(198.974609 0)"/>
      <use xlink:href="#DejaVuSans-433" transform="translate(260.15625 0)"/>
      <use xlink:href="#DejaVuSans-440" transform="translate(312.695312 0)"/>
      <use xlink:href="#DejaVuSans-430" transform="translate(376.171875 0)"/>
      <use xlink:href="#DejaVuSans-434" transform="translate(437.451172 0)"/>
     </g>
    </g>
    <g id="line2d_32">
     <path d="M 99 94.294687 
L 109 94.294687 
L 119 94.294687 
" style="fill: none; stroke: #ff0000; stroke-width: 1.5; stroke-linecap: square"/>
    </g>
    <g id="text_19">
     <!-- Улучшенный Виноград -->
     <g transform="translate(127 97.794687) scale(0.1 -0.1)">
      <defs>
       <path id="DejaVuSans-423" d="M 2047 566 
Q 1981 409 1881 291 
Q 1634 0 850 0 
L 609 0 
L 609 531 
L 806 531 
Q 1178 531 1322 616 
Q 1409 669 1466 800 
L 1606 1131 
L 109 4666 
L 788 4666 
L 1947 1928 
L 3113 4666 
L 3791 4666 
L 2047 566 
z
" transform="scale(0.015625)"/>
       <path id="DejaVuSans-448" d="M 3216 459 
L 4697 459 
L 4697 3500 
L 5275 3500 
L 5275 0 
L 581 0 
L 581 3500 
L 1159 3500 
L 1159 459 
L 2638 459 
L 2638 3500 
L 3216 3500 
L 3216 459 
z
" transform="scale(0.015625)"/>
      </defs>
      <use xlink:href="#DejaVuSans-423"/>
      <use xlink:href="#DejaVuSans-43b" transform="translate(60.9375 0)"/>
      <use xlink:href="#DejaVuSans-443" transform="translate(124.853516 0)"/>
      <use xlink:href="#DejaVuSans-447" transform="translate(184.033203 0)"/>
      <use xlink:href="#DejaVuSans-448" transform="translate(243.115234 0)"/>
      <use xlink:href="#DejaVuSans-435" transform="translate(334.619141 0)"/>
      <use xlink:href="#DejaVuSans-43d" transform="translate(396.142578 0)"/>
      <use xlink:href="#DejaVuSans-43d" transform="translate(461.523438 0)"/>
      <use xlink:href="#DejaVuSans-44b" transform="translate(526.904297 0)"/>
      <use xlink:href="#DejaVuSans-439" transform="translate(605.859375 0)"/>
      <use xlink:href="#DejaVuSans-20" transform="translate(670.849609 0)"/>
      <use xlink:href="#DejaVuSans-412" transform="translate(702.636719 0)"/>
      <use xlink:href="#DejaVuSans-438" transform="translate(771.240234 0)"/>
      <use xlink:href="#DejaVuSans-43d" transform="translate(836.230469 0)"/>
      <use xlink:href="#DejaVuSans-43e" transform="translate(901.611328 0)"/>
      <use xlink:href="#DejaVuSans-433" transform="translate(962.792969 0)"/>
      <use xlink:href="#DejaVuSans-440" transform="translate(1015.332031 0)"/>
      <use xlink:href="#DejaVuSans-430" transform="translate(1078.808594 0)"/>
      <use xlink:href="#DejaVuSans-434" transform="translate(1140.087891 0)"/>
     </g>
    </g>
   </g>
  </g>
 </g>
 <defs>
  <clipPath id="p8d7da546d6">
   <rect x="90" y="51.84" width="558" height="332.64"/>
  </clipPath>
 </defs>
</svg>
