<?xml version="1.0" encoding="utf-8" standalone="no"?>
<!DOCTYPE svg PUBLIC "-//W3C//DTD SVG 1.1//EN"
  "http://www.w3.org/Graphics/SVG/1.1/DTD/svg11.dtd">
<svg xmlns:xlink="http://www.w3.org/1999/xlink" width="576pt" height="432pt" viewBox="0 0 576 432" xmlns="http://www.w3.org/2000/svg" version="1.1">
 <metadata>
  <rdf:RDF xmlns:dc="http://purl.org/dc/elements/1.1/" xmlns:cc="http://creativecommons.org/ns#" xmlns:rdf="http://www.w3.org/1999/02/22-rdf-syntax-ns#">
   <cc:Work>
    <dc:type rdf:resource="http://purl.org/dc/dcmitype/StillImage"/>
    <dc:date>2025-09-23T07:57:02.913629</dc:date>
    <dc:format>image/svg+xml</dc:format>
    <dc:creator>
     <cc:Agent>
      <dc:title>Matplotlib v3.10.6, https://matplotlib.org/</dc:title>
     </cc:Agent>
    </dc:creator>
   </cc:Work>
  </rdf:RDF>
 </metadata>
 <defs>
  <style type="text/css">*{stroke-linejoin: round; stroke-linecap: butt}</style>
 </defs>
 <g id="figure_1">
  <g id="patch_1">
   <path d="M 0 432 
L 576 432 
L 576 0 
L 0 0 
z
" style="fill: #ffffff"/>
  </g>
  <g id="axes_1">
   <g id="patch_2">
    <path d="M 72 384.48 
L 518.4 384.48 
L 518.4 51.84 
L 72 51.84 
z
" style="fill: #ffffff"/>
   </g>
   <g id="matplotlib.axis_1">
    <g id="xtick_1">
     <g id="line2d_1">
      <path d="M 91.476013 384.48 
L 91.476013 51.84 
" clip-path="url(#pe9d7e190f7)" style="fill: none; stroke: #b0b0b0; stroke-width: 0.8; stroke-linecap: square"/>
     </g>
     <g id="line2d_2">
      <defs>
       <path id="mbb946b64a4" d="M 0 0 
L 0 3.5 
" style="stroke: #000000; stroke-width: 0.8"/>
      </defs>
      <g>
       <use xlink:href="#mbb946b64a4" x="91.476013" y="384.48" style="stroke: #000000; stroke-width: 0.8"/>
      </g>
     </g>
     <g id="text_1">
      <!-- 0 -->
      <g transform="translate(88.294763 399.078438) scale(0.1 -0.1)">
       <defs>
        <path id="DejaVuSans-30" d="M 2034 4250 
Q 1547 4250 1301 3770 
Q 1056 3291 1056 2328 
Q 1056 1369 1301 889 
Q 1547 409 2034 409 
Q 2525 409 2770 889 
Q 3016 1369 3016 2328 
Q 3016 3291 2770 3770 
Q 2525 4250 2034 4250 
z
M 2034 4750 
Q 2819 4750 3233 4129 
Q 3647 3509 3647 2328 
Q 3647 1150 3233 529 
Q 2819 -91 2034 -91 
Q 1250 -91 836 529 
Q 422 1150 422 2328 
Q 422 3509 836 4129 
Q 1250 4750 2034 4750 
z
" transform="scale(0.015625)"/>
       </defs>
       <use xlink:href="#DejaVuSans-30"/>
      </g>
     </g>
    </g>
    <g id="xtick_2">
     <g id="line2d_3">
      <path d="M 172.965608 384.48 
L 172.965608 51.84 
" clip-path="url(#pe9d7e190f7)" style="fill: none; stroke: #b0b0b0; stroke-width: 0.8; stroke-linecap: square"/>
     </g>
     <g id="line2d_4">
      <g>
       <use xlink:href="#mbb946b64a4" x="172.965608" y="384.48" style="stroke: #000000; stroke-width: 0.8"/>
      </g>
     </g>
     <g id="text_2">
      <!-- 100 -->
      <g transform="translate(163.421858 399.078438) scale(0.1 -0.1)">
       <defs>
        <path id="DejaVuSans-31" d="M 794 531 
L 1825 531 
L 1825 4091 
L 703 3866 
L 703 4441 
L 1819 4666 
L 2450 4666 
L 2450 531 
L 3481 531 
L 3481 0 
L 794 0 
L 794 531 
z
" transform="scale(0.015625)"/>
       </defs>
       <use xlink:href="#DejaVuSans-31"/>
       <use xlink:href="#DejaVuSans-30" transform="translate(63.623047 0)"/>
       <use xlink:href="#DejaVuSans-30" transform="translate(127.246094 0)"/>
      </g>
     </g>
    </g>
    <g id="xtick_3">
     <g id="line2d_5">
      <path d="M 254.455203 384.48 
L 254.455203 51.84 
" clip-path="url(#pe9d7e190f7)" style="fill: none; stroke: #b0b0b0; stroke-width: 0.8; stroke-linecap: square"/>
     </g>
     <g id="line2d_6">
      <g>
       <use xlink:href="#mbb946b64a4" x="254.455203" y="384.48" style="stroke: #000000; stroke-width: 0.8"/>
      </g>
     </g>
     <g id="text_3">
      <!-- 200 -->
      <g transform="translate(244.911453 399.078438) scale(0.1 -0.1)">
       <defs>
        <path id="DejaVuSans-32" d="M 1228 531 
L 3431 531 
L 3431 0 
L 469 0 
L 469 531 
Q 828 903 1448 1529 
Q 2069 2156 2228 2338 
Q 2531 2678 2651 2914 
Q 2772 3150 2772 3378 
Q 2772 3750 2511 3984 
Q 2250 4219 1831 4219 
Q 1534 4219 1204 4116 
Q 875 4013 500 3803 
L 500 4441 
Q 881 4594 1212 4672 
Q 1544 4750 1819 4750 
Q 2544 4750 2975 4387 
Q 3406 4025 3406 3419 
Q 3406 3131 3298 2873 
Q 3191 2616 2906 2266 
Q 2828 2175 2409 1742 
Q 1991 1309 1228 531 
z
" transform="scale(0.015625)"/>
       </defs>
       <use xlink:href="#DejaVuSans-32"/>
       <use xlink:href="#DejaVuSans-30" transform="translate(63.623047 0)"/>
       <use xlink:href="#DejaVuSans-30" transform="translate(127.246094 0)"/>
      </g>
     </g>
    </g>
    <g id="xtick_4">
     <g id="line2d_7">
      <path d="M 335.944797 384.48 
L 335.944797 51.84 
" clip-path="url(#pe9d7e190f7)" style="fill: none; stroke: #b0b0b0; stroke-width: 0.8; stroke-linecap: square"/>
     </g>
     <g id="line2d_8">
      <g>
       <use xlink:href="#mbb946b64a4" x="335.944797" y="384.48" style="stroke: #000000; stroke-width: 0.8"/>
      </g>
     </g>
     <g id="text_4">
      <!-- 300 -->
      <g transform="translate(326.401047 399.078438) scale(0.1 -0.1)">
       <defs>
        <path id="DejaVuSans-33" d="M 2597 2516 
Q 3050 2419 3304 2112 
Q 3559 1806 3559 1356 
Q 3559 666 3084 287 
Q 2609 -91 1734 -91 
Q 1441 -91 1130 -33 
Q 819 25 488 141 
L 488 750 
Q 750 597 1062 519 
Q 1375 441 1716 441 
Q 2309 441 2620 675 
Q 2931 909 2931 1356 
Q 2931 1769 2642 2001 
Q 2353 2234 1838 2234 
L 1294 2234 
L 1294 2753 
L 1863 2753 
Q 2328 2753 2575 2939 
Q 2822 3125 2822 3475 
Q 2822 3834 2567 4026 
Q 2313 4219 1838 4219 
Q 1578 4219 1281 4162 
Q 984 4106 628 3988 
L 628 4550 
Q 988 4650 1302 4700 
Q 1616 4750 1894 4750 
Q 2613 4750 3031 4423 
Q 3450 4097 3450 3541 
Q 3450 3153 3228 2886 
Q 3006 2619 2597 2516 
z
" transform="scale(0.015625)"/>
       </defs>
       <use xlink:href="#DejaVuSans-33"/>
       <use xlink:href="#DejaVuSans-30" transform="translate(63.623047 0)"/>
       <use xlink:href="#DejaVuSans-30" transform="translate(127.246094 0)"/>
      </g>
     </g>
    </g>
    <g id="xtick_5">
     <g id="line2d_9">
      <path d="M 417.434392 384.48 
L 417.434392 51.84 
" clip-path="url(#pe9d7e190f7)" style="fill: none; stroke: #b0b0b0; stroke-width: 0.8; stroke-linecap: square"/>
     </g>
     <g id="line2d_10">
      <g>
       <use xlink:href="#mbb946b64a4" x="417.434392" y="384.48" style="stroke: #000000; stroke-width: 0.8"/>
      </g>
     </g>
     <g id="text_5">
      <!-- 400 -->
      <g transform="translate(407.890642 399.078438) scale(0.1 -0.1)">
       <defs>
        <path id="DejaVuSans-34" d="M 2419 4116 
L 825 1625 
L 2419 1625 
L 2419 4116 
z
M 2253 4666 
L 3047 4666 
L 3047 1625 
L 3713 1625 
L 3713 1100 
L 3047 1100 
L 3047 0 
L 2419 0 
L 2419 1100 
L 313 1100 
L 313 1709 
L 2253 4666 
z
" transform="scale(0.015625)"/>
       </defs>
       <use xlink:href="#DejaVuSans-34"/>
       <use xlink:href="#DejaVuSans-30" transform="translate(63.623047 0)"/>
       <use xlink:href="#DejaVuSans-30" transform="translate(127.246094 0)"/>
      </g>
     </g>
    </g>
    <g id="xtick_6">
     <g id="line2d_11">
      <path d="M 498.923987 384.48 
L 498.923987 51.84 
" clip-path="url(#pe9d7e190f7)" style="fill: none; stroke: #b0b0b0; stroke-width: 0.8; stroke-linecap: square"/>
     </g>
     <g id="line2d_12">
      <g>
       <use xlink:href="#mbb946b64a4" x="498.923987" y="384.48" style="stroke: #000000; stroke-width: 0.8"/>
      </g>
     </g>
     <g id="text_6">
      <!-- 500 -->
      <g transform="translate(489.380237 399.078438) scale(0.1 -0.1)">
       <defs>
        <path id="DejaVuSans-35" d="M 691 4666 
L 3169 4666 
L 3169 4134 
L 1269 4134 
L 1269 2991 
Q 1406 3038 1543 3061 
Q 1681 3084 1819 3084 
Q 2600 3084 3056 2656 
Q 3513 2228 3513 1497 
Q 3513 744 3044 326 
Q 2575 -91 1722 -91 
Q 1428 -91 1123 -41 
Q 819 9 494 109 
L 494 744 
Q 775 591 1075 516 
Q 1375 441 1709 441 
Q 2250 441 2565 725 
Q 2881 1009 2881 1497 
Q 2881 1984 2565 2268 
Q 2250 2553 1709 2553 
Q 1456 2553 1204 2497 
Q 953 2441 691 2322 
L 691 4666 
z
" transform="scale(0.015625)"/>
       </defs>
       <use xlink:href="#DejaVuSans-35"/>
       <use xlink:href="#DejaVuSans-30" transform="translate(63.623047 0)"/>
       <use xlink:href="#DejaVuSans-30" transform="translate(127.246094 0)"/>
      </g>
     </g>
    </g>
    <g id="text_7">
     <!-- Размер матрицы -->
     <g transform="translate(251.328125 412.756563) scale(0.1 -0.1)">
      <defs>
       <path id="DejaVuSans-420" d="M 1259 4147 
L 1259 2394 
L 2053 2394 
Q 2494 2394 2734 2622 
Q 2975 2850 2975 3272 
Q 2975 3691 2734 3919 
Q 2494 4147 2053 4147 
L 1259 4147 
z
M 628 4666 
L 2053 4666 
Q 2838 4666 3239 4311 
Q 3641 3956 3641 3272 
Q 3641 2581 3239 2228 
Q 2838 1875 2053 1875 
L 1259 1875 
L 1259 0 
L 628 0 
L 628 4666 
z
" transform="scale(0.015625)"/>
       <path id="DejaVuSans-430" d="M 2194 1759 
Q 1497 1759 1228 1600 
Q 959 1441 959 1056 
Q 959 750 1161 570 
Q 1363 391 1709 391 
Q 2188 391 2477 730 
Q 2766 1069 2766 1631 
L 2766 1759 
L 2194 1759 
z
M 3341 1997 
L 3341 0 
L 2766 0 
L 2766 531 
Q 2569 213 2275 61 
Q 1981 -91 1556 -91 
Q 1019 -91 701 211 
Q 384 513 384 1019 
Q 384 1609 779 1909 
Q 1175 2209 1959 2209 
L 2766 2209 
L 2766 2266 
Q 2766 2663 2505 2880 
Q 2244 3097 1772 3097 
Q 1472 3097 1187 3025 
Q 903 2953 641 2809 
L 641 3341 
Q 956 3463 1253 3523 
Q 1550 3584 1831 3584 
Q 2591 3584 2966 3190 
Q 3341 2797 3341 1997 
z
" transform="scale(0.015625)"/>
       <path id="DejaVuSans-437" d="M 2206 1888 
Q 2594 1813 2809 1584 
Q 3025 1356 3025 1019 
Q 3025 478 2622 193 
Q 2219 -91 1475 -91 
Q 1225 -91 961 -47 
Q 697 -3 416 84 
L 416 619 
Q 638 503 903 445 
Q 1169 388 1459 388 
Q 1931 388 2195 563 
Q 2459 738 2459 1019 
Q 2459 1294 2225 1461 
Q 1991 1628 1563 1628 
L 1100 1628 
L 1100 2103 
L 1584 2103 
Q 1947 2103 2158 2242 
Q 2369 2381 2369 2600 
Q 2369 2800 2151 2944 
Q 1934 3088 1563 3088 
Q 1341 3088 1089 3047 
Q 838 3006 534 2916 
L 534 3438 
Q 841 3513 1106 3550 
Q 1372 3588 1609 3588 
Q 2222 3588 2576 3342 
Q 2931 3097 2931 2656 
Q 2931 2366 2743 2164 
Q 2556 1963 2206 1888 
z
" transform="scale(0.015625)"/>
       <path id="DejaVuSans-43c" d="M 581 3500 
L 1422 3500 
L 2416 1156 
L 3413 3500 
L 4247 3500 
L 4247 0 
L 3669 0 
L 3669 2950 
L 2703 672 
L 2128 672 
L 1159 2950 
L 1159 0 
L 581 0 
L 581 3500 
z
" transform="scale(0.015625)"/>
       <path id="DejaVuSans-435" d="M 3597 1894 
L 3597 1613 
L 953 1613 
Q 991 1019 1311 708 
Q 1631 397 2203 397 
Q 2534 397 2845 478 
Q 3156 559 3463 722 
L 3463 178 
Q 3153 47 2828 -22 
Q 2503 -91 2169 -91 
Q 1331 -91 842 396 
Q 353 884 353 1716 
Q 353 2575 817 3079 
Q 1281 3584 2069 3584 
Q 2775 3584 3186 3129 
Q 3597 2675 3597 1894 
z
M 3022 2063 
Q 3016 2534 2758 2815 
Q 2500 3097 2075 3097 
Q 1594 3097 1305 2825 
Q 1016 2553 972 2059 
L 3022 2063 
z
" transform="scale(0.015625)"/>
       <path id="DejaVuSans-440" d="M 1159 525 
L 1159 -1331 
L 581 -1331 
L 581 3500 
L 1159 3500 
L 1159 2969 
Q 1341 3281 1617 3432 
Q 1894 3584 2278 3584 
Q 2916 3584 3314 3078 
Q 3713 2572 3713 1747 
Q 3713 922 3314 415 
Q 2916 -91 2278 -91 
Q 1894 -91 1617 61 
Q 1341 213 1159 525 
z
M 3116 1747 
Q 3116 2381 2855 2742 
Q 2594 3103 2138 3103 
Q 1681 3103 1420 2742 
Q 1159 2381 1159 1747 
Q 1159 1113 1420 752 
Q 1681 391 2138 391 
Q 2594 391 2855 752 
Q 3116 1113 3116 1747 
z
" transform="scale(0.015625)"/>
       <path id="DejaVuSans-20" transform="scale(0.015625)"/>
       <path id="DejaVuSans-442" d="M 188 3500 
L 3541 3500 
L 3541 3041 
L 2147 3041 
L 2147 0 
L 1581 0 
L 1581 3041 
L 188 3041 
L 188 3500 
z
" transform="scale(0.015625)"/>
       <path id="DejaVuSans-438" d="M 3578 3500 
L 3578 0 
L 3006 0 
L 3006 2809 
L 1319 0 
L 581 0 
L 581 3500 
L 1153 3500 
L 1153 697 
L 2838 3500 
L 3578 3500 
z
" transform="scale(0.015625)"/>
       <path id="DejaVuSans-446" d="M 3603 0 
L 581 0 
L 581 3500 
L 1159 3500 
L 1159 459 
L 3025 459 
L 3025 3500 
L 3603 3500 
L 3603 459 
L 4063 459 
L 4063 -884 
L 3603 -884 
L 3603 0 
z
" transform="scale(0.015625)"/>
       <path id="DejaVuSans-44b" d="M 3907 3500 
L 4482 3500 
L 4482 0 
L 3907 0 
L 3907 3500 
z
M 4195 3584 
L 4195 3584 
z
M 2781 1038 
Q 2781 1319 2576 1466 
Q 2372 1613 1978 1613 
L 1159 1613 
L 1159 459 
L 1978 459 
Q 2372 459 2576 607 
Q 2781 756 2781 1038 
z
M 581 3500 
L 1159 3500 
L 1159 2072 
L 2003 2072 
Q 2672 2072 3033 1817 
Q 3394 1563 3394 1038 
Q 3394 513 3033 256 
Q 2672 0 2003 0 
L 581 0 
L 581 3500 
z
" transform="scale(0.015625)"/>
      </defs>
      <use xlink:href="#DejaVuSans-420"/>
      <use xlink:href="#DejaVuSans-430" transform="translate(60.302734 0)"/>
      <use xlink:href="#DejaVuSans-437" transform="translate(121.582031 0)"/>
      <use xlink:href="#DejaVuSans-43c" transform="translate(174.755859 0)"/>
      <use xlink:href="#DejaVuSans-435" transform="translate(250.195312 0)"/>
      <use xlink:href="#DejaVuSans-440" transform="translate(311.71875 0)"/>
      <use xlink:href="#DejaVuSans-20" transform="translate(375.195312 0)"/>
      <use xlink:href="#DejaVuSans-43c" transform="translate(406.982422 0)"/>
      <use xlink:href="#DejaVuSans-430" transform="translate(482.421875 0)"/>
      <use xlink:href="#DejaVuSans-442" transform="translate(543.701172 0)"/>
      <use xlink:href="#DejaVuSans-440" transform="translate(601.953125 0)"/>
      <use xlink:href="#DejaVuSans-438" transform="translate(665.429688 0)"/>
      <use xlink:href="#DejaVuSans-446" transform="translate(730.419922 0)"/>
      <use xlink:href="#DejaVuSans-44b" transform="translate(798.486328 0)"/>
     </g>
    </g>
   </g>
   <g id="matplotlib.axis_2">
    <g id="ytick_1">
     <g id="line2d_13">
      <path d="M 72 369.360045 
L 518.4 369.360045 
" clip-path="url(#pe9d7e190f7)" style="fill: none; stroke: #b0b0b0; stroke-width: 0.8; stroke-linecap: square"/>
     </g>
     <g id="line2d_14">
      <defs>
       <path id="mce02e1ef1f" d="M 0 0 
L -3.5 0 
" style="stroke: #000000; stroke-width: 0.8"/>
      </defs>
      <g>
       <use xlink:href="#mce02e1ef1f" x="72" y="369.360045" style="stroke: #000000; stroke-width: 0.8"/>
      </g>
     </g>
     <g id="text_8">
      <!-- 0 -->
      <g transform="translate(58.6375 373.159263) scale(0.1 -0.1)">
       <use xlink:href="#DejaVuSans-30"/>
      </g>
     </g>
    </g>
    <g id="ytick_2">
     <g id="line2d_15">
      <path d="M 72 305.983397 
L 518.4 305.983397 
" clip-path="url(#pe9d7e190f7)" style="fill: none; stroke: #b0b0b0; stroke-width: 0.8; stroke-linecap: square"/>
     </g>
     <g id="line2d_16">
      <g>
       <use xlink:href="#mce02e1ef1f" x="72" y="305.983397" style="stroke: #000000; stroke-width: 0.8"/>
      </g>
     </g>
     <g id="text_9">
      <!-- 200000000 -->
      <g transform="translate(7.7375 309.782616) scale(0.1 -0.1)">
       <use xlink:href="#DejaVuSans-32"/>
       <use xlink:href="#DejaVuSans-30" transform="translate(63.623047 0)"/>
       <use xlink:href="#DejaVuSans-30" transform="translate(127.246094 0)"/>
       <use xlink:href="#DejaVuSans-30" transform="translate(190.869141 0)"/>
       <use xlink:href="#DejaVuSans-30" transform="translate(254.492188 0)"/>
       <use xlink:href="#DejaVuSans-30" transform="translate(318.115234 0)"/>
       <use xlink:href="#DejaVuSans-30" transform="translate(381.738281 0)"/>
       <use xlink:href="#DejaVuSans-30" transform="translate(445.361328 0)"/>
       <use xlink:href="#DejaVuSans-30" transform="translate(508.984375 0)"/>
      </g>
     </g>
    </g>
    <g id="ytick_3">
     <g id="line2d_17">
      <path d="M 72 242.606749 
L 518.4 242.606749 
" clip-path="url(#pe9d7e190f7)" style="fill: none; stroke: #b0b0b0; stroke-width: 0.8; stroke-linecap: square"/>
     </g>
     <g id="line2d_18">
      <g>
       <use xlink:href="#mce02e1ef1f" x="72" y="242.606749" style="stroke: #000000; stroke-width: 0.8"/>
      </g>
     </g>
     <g id="text_10">
      <!-- 400000000 -->
      <g transform="translate(7.7375 246.405968) scale(0.1 -0.1)">
       <use xlink:href="#DejaVuSans-34"/>
       <use xlink:href="#DejaVuSans-30" transform="translate(63.623047 0)"/>
       <use xlink:href="#DejaVuSans-30" transform="translate(127.246094 0)"/>
       <use xlink:href="#DejaVuSans-30" transform="translate(190.869141 0)"/>
       <use xlink:href="#DejaVuSans-30" transform="translate(254.492188 0)"/>
       <use xlink:href="#DejaVuSans-30" transform="translate(318.115234 0)"/>
       <use xlink:href="#DejaVuSans-30" transform="translate(381.738281 0)"/>
       <use xlink:href="#DejaVuSans-30" transform="translate(445.361328 0)"/>
       <use xlink:href="#DejaVuSans-30" transform="translate(508.984375 0)"/>
      </g>
     </g>
    </g>
    <g id="ytick_4">
     <g id="line2d_19">
      <path d="M 72 179.230102 
L 518.4 179.230102 
" clip-path="url(#pe9d7e190f7)" style="fill: none; stroke: #b0b0b0; stroke-width: 0.8; stroke-linecap: square"/>
     </g>
     <g id="line2d_20">
      <g>
       <use xlink:href="#mce02e1ef1f" x="72" y="179.230102" style="stroke: #000000; stroke-width: 0.8"/>
      </g>
     </g>
     <g id="text_11">
      <!-- 600000000 -->
      <g transform="translate(7.7375 183.029321) scale(0.1 -0.1)">
       <defs>
        <path id="DejaVuSans-36" d="M 2113 2584 
Q 1688 2584 1439 2293 
Q 1191 2003 1191 1497 
Q 1191 994 1439 701 
Q 1688 409 2113 409 
Q 2538 409 2786 701 
Q 3034 994 3034 1497 
Q 3034 2003 2786 2293 
Q 2538 2584 2113 2584 
z
M 3366 4563 
L 3366 3988 
Q 3128 4100 2886 4159 
Q 2644 4219 2406 4219 
Q 1781 4219 1451 3797 
Q 1122 3375 1075 2522 
Q 1259 2794 1537 2939 
Q 1816 3084 2150 3084 
Q 2853 3084 3261 2657 
Q 3669 2231 3669 1497 
Q 3669 778 3244 343 
Q 2819 -91 2113 -91 
Q 1303 -91 875 529 
Q 447 1150 447 2328 
Q 447 3434 972 4092 
Q 1497 4750 2381 4750 
Q 2619 4750 2861 4703 
Q 3103 4656 3366 4563 
z
" transform="scale(0.015625)"/>
       </defs>
       <use xlink:href="#DejaVuSans-36"/>
       <use xlink:href="#DejaVuSans-30" transform="translate(63.623047 0)"/>
       <use xlink:href="#DejaVuSans-30" transform="translate(127.246094 0)"/>
       <use xlink:href="#DejaVuSans-30" transform="translate(190.869141 0)"/>
       <use xlink:href="#DejaVuSans-30" transform="translate(254.492188 0)"/>
       <use xlink:href="#DejaVuSans-30" transform="translate(318.115234 0)"/>
       <use xlink:href="#DejaVuSans-30" transform="translate(381.738281 0)"/>
       <use xlink:href="#DejaVuSans-30" transform="translate(445.361328 0)"/>
       <use xlink:href="#DejaVuSans-30" transform="translate(508.984375 0)"/>
      </g>
     </g>
    </g>
    <g id="ytick_5">
     <g id="line2d_21">
      <path d="M 72 115.853454 
L 518.4 115.853454 
" clip-path="url(#pe9d7e190f7)" style="fill: none; stroke: #b0b0b0; stroke-width: 0.8; stroke-linecap: square"/>
     </g>
     <g id="line2d_22">
      <g>
       <use xlink:href="#mce02e1ef1f" x="72" y="115.853454" style="stroke: #000000; stroke-width: 0.8"/>
      </g>
     </g>
     <g id="text_12">
      <!-- 800000000 -->
      <g transform="translate(7.7375 119.652673) scale(0.1 -0.1)">
       <defs>
        <path id="DejaVuSans-38" d="M 2034 2216 
Q 1584 2216 1326 1975 
Q 1069 1734 1069 1313 
Q 1069 891 1326 650 
Q 1584 409 2034 409 
Q 2484 409 2743 651 
Q 3003 894 3003 1313 
Q 3003 1734 2745 1975 
Q 2488 2216 2034 2216 
z
M 1403 2484 
Q 997 2584 770 2862 
Q 544 3141 544 3541 
Q 544 4100 942 4425 
Q 1341 4750 2034 4750 
Q 2731 4750 3128 4425 
Q 3525 4100 3525 3541 
Q 3525 3141 3298 2862 
Q 3072 2584 2669 2484 
Q 3125 2378 3379 2068 
Q 3634 1759 3634 1313 
Q 3634 634 3220 271 
Q 2806 -91 2034 -91 
Q 1263 -91 848 271 
Q 434 634 434 1313 
Q 434 1759 690 2068 
Q 947 2378 1403 2484 
z
M 1172 3481 
Q 1172 3119 1398 2916 
Q 1625 2713 2034 2713 
Q 2441 2713 2670 2916 
Q 2900 3119 2900 3481 
Q 2900 3844 2670 4047 
Q 2441 4250 2034 4250 
Q 1625 4250 1398 4047 
Q 1172 3844 1172 3481 
z
" transform="scale(0.015625)"/>
       </defs>
       <use xlink:href="#DejaVuSans-38"/>
       <use xlink:href="#DejaVuSans-30" transform="translate(63.623047 0)"/>
       <use xlink:href="#DejaVuSans-30" transform="translate(127.246094 0)"/>
       <use xlink:href="#DejaVuSans-30" transform="translate(190.869141 0)"/>
       <use xlink:href="#DejaVuSans-30" transform="translate(254.492188 0)"/>
       <use xlink:href="#DejaVuSans-30" transform="translate(318.115234 0)"/>
       <use xlink:href="#DejaVuSans-30" transform="translate(381.738281 0)"/>
       <use xlink:href="#DejaVuSans-30" transform="translate(445.361328 0)"/>
       <use xlink:href="#DejaVuSans-30" transform="translate(508.984375 0)"/>
      </g>
     </g>
    </g>
    <g id="ytick_6">
     <g id="line2d_23">
      <path d="M 72 52.476807 
L 518.4 52.476807 
" clip-path="url(#pe9d7e190f7)" style="fill: none; stroke: #b0b0b0; stroke-width: 0.8; stroke-linecap: square"/>
     </g>
     <g id="line2d_24">
      <g>
       <use xlink:href="#mce02e1ef1f" x="72" y="52.476807" style="stroke: #000000; stroke-width: 0.8"/>
      </g>
     </g>
     <g id="text_13">
      <!-- 1000000000 -->
      <g transform="translate(1.375 56.276025) scale(0.1 -0.1)">
       <use xlink:href="#DejaVuSans-31"/>
       <use xlink:href="#DejaVuSans-30" transform="translate(63.623047 0)"/>
       <use xlink:href="#DejaVuSans-30" transform="translate(127.246094 0)"/>
       <use xlink:href="#DejaVuSans-30" transform="translate(190.869141 0)"/>
       <use xlink:href="#DejaVuSans-30" transform="translate(254.492188 0)"/>
       <use xlink:href="#DejaVuSans-30" transform="translate(318.115234 0)"/>
       <use xlink:href="#DejaVuSans-30" transform="translate(381.738281 0)"/>
       <use xlink:href="#DejaVuSans-30" transform="translate(445.361328 0)"/>
       <use xlink:href="#DejaVuSans-30" transform="translate(508.984375 0)"/>
       <use xlink:href="#DejaVuSans-30" transform="translate(572.607422 0)"/>
      </g>
     </g>
    </g>
    <g id="text_14">
     <!-- Время (тики) -->
     <g transform="translate(-4.704688 252.542812) rotate(-90) scale(0.1 -0.1)">
      <defs>
       <path id="DejaVuSans-412" d="M 1259 2228 
L 1259 519 
L 2272 519 
Q 2781 519 3026 730 
Q 3272 941 3272 1375 
Q 3272 1813 3026 2020 
Q 2781 2228 2272 2228 
L 1259 2228 
z
M 1259 4147 
L 1259 2741 
L 2194 2741 
Q 2656 2741 2882 2914 
Q 3109 3088 3109 3444 
Q 3109 3797 2882 3972 
Q 2656 4147 2194 4147 
L 1259 4147 
z
M 628 4666 
L 2241 4666 
Q 2963 4666 3353 4366 
Q 3744 4066 3744 3513 
Q 3744 3084 3544 2831 
Q 3344 2578 2956 2516 
Q 3422 2416 3680 2098 
Q 3938 1781 3938 1306 
Q 3938 681 3513 340 
Q 3088 0 2303 0 
L 628 0 
L 628 4666 
z
" transform="scale(0.015625)"/>
       <path id="DejaVuSans-44f" d="M 1181 2491 
Q 1181 2231 1381 2084 
Q 1581 1938 1953 1938 
L 2728 1938 
L 2728 3041 
L 1953 3041 
Q 1581 3041 1381 2897 
Q 1181 2753 1181 2491 
z
M 363 0 
L 1431 1534 
Q 1069 1616 828 1830 
Q 588 2044 588 2491 
Q 588 2997 923 3248 
Q 1259 3500 1938 3500 
L 3306 3500 
L 3306 0 
L 2728 0 
L 2728 1478 
L 2013 1478 
L 981 0 
L 363 0 
z
" transform="scale(0.015625)"/>
       <path id="DejaVuSans-28" d="M 1984 4856 
Q 1566 4138 1362 3434 
Q 1159 2731 1159 2009 
Q 1159 1288 1364 580 
Q 1569 -128 1984 -844 
L 1484 -844 
Q 1016 -109 783 600 
Q 550 1309 550 2009 
Q 550 2706 781 3412 
Q 1013 4119 1484 4856 
L 1984 4856 
z
" transform="scale(0.015625)"/>
       <path id="DejaVuSans-43a" d="M 581 3500 
L 1153 3500 
L 1153 1856 
L 2775 3500 
L 3481 3500 
L 2144 2147 
L 3653 0 
L 3009 0 
L 1769 1766 
L 1153 1141 
L 1153 0 
L 581 0 
L 581 3500 
z
" transform="scale(0.015625)"/>
       <path id="DejaVuSans-29" d="M 513 4856 
L 1013 4856 
Q 1481 4119 1714 3412 
Q 1947 2706 1947 2009 
Q 1947 1309 1714 600 
Q 1481 -109 1013 -844 
L 513 -844 
Q 928 -128 1133 580 
Q 1338 1288 1338 2009 
Q 1338 2731 1133 3434 
Q 928 4138 513 4856 
z
" transform="scale(0.015625)"/>
      </defs>
      <use xlink:href="#DejaVuSans-412"/>
      <use xlink:href="#DejaVuSans-440" transform="translate(68.603516 0)"/>
      <use xlink:href="#DejaVuSans-435" transform="translate(132.080078 0)"/>
      <use xlink:href="#DejaVuSans-43c" transform="translate(193.603516 0)"/>
      <use xlink:href="#DejaVuSans-44f" transform="translate(269.042969 0)"/>
      <use xlink:href="#DejaVuSans-20" transform="translate(329.199219 0)"/>
      <use xlink:href="#DejaVuSans-28" transform="translate(360.986328 0)"/>
      <use xlink:href="#DejaVuSans-442" transform="translate(400 0)"/>
      <use xlink:href="#DejaVuSans-438" transform="translate(458.251953 0)"/>
      <use xlink:href="#DejaVuSans-43a" transform="translate(523.242188 0)"/>
      <use xlink:href="#DejaVuSans-438" transform="translate(583.642578 0)"/>
      <use xlink:href="#DejaVuSans-29" transform="translate(648.632812 0)"/>
     </g>
    </g>
   </g>
   <g id="line2d_25">
    <path d="M 92.290909 369.36 
L 119.997371 369.267582 
L 123.256955 369.235828 
L 142.814458 368.849657 
L 153.408105 368.453715 
L 155.852793 368.346552 
L 166.44644 367.815662 
L 168.891128 367.649366 
L 171.335816 367.467408 
L 188.448631 366.122651 
L 189.263527 365.89716 
L 191.708215 365.750535 
L 195.782694 365.127496 
L 199.042278 364.813167 
L 203.116758 364.265434 
L 203.931654 364.216264 
L 205.561446 363.917748 
L 208.006134 363.707732 
L 208.82103 363.3311 
L 214.525301 362.531039 
L 215.340197 361.9228 
L 216.155093 361.77892 
L 216.969989 361.98985 
L 221.044469 361.315268 
L 221.859365 360.92553 
L 222.674261 360.750583 
L 223.489157 360.714662 
L 225.933844 360.128243 
L 226.74874 360.206267 
L 227.563636 360.004715 
L 228.378532 359.205446 
L 229.193428 358.994948 
L 230.008324 358.3138 
L 231.638116 358.91346 
L 232.453012 358.676409 
L 233.267908 358.581381 
L 234.8977 358.003915 
L 235.712596 357.742656 
L 236.527492 357.731147 
L 237.342388 357.423177 
L 238.157284 356.994191 
L 238.97218 357.174136 
L 240.601972 356.68397 
L 241.416867 356.014667 
L 242.231763 355.786095 
L 243.046659 356.068199 
L 243.861555 355.946739 
L 244.676451 355.576216 
L 245.491347 355.399827 
L 246.306243 354.442195 
L 247.121139 354.134092 
L 247.936035 354.857359 
L 248.750931 354.555236 
L 249.565827 354.523067 
L 250.380723 354.141433 
L 251.195619 353.992655 
L 252.010515 353.498622 
L 252.825411 353.660983 
L 253.640307 353.424275 
L 254.455203 352.998339 
L 256.89989 352.161912 
L 259.344578 351.043457 
L 260.159474 350.470104 
L 260.97437 350.747165 
L 261.789266 350.659611 
L 263.419058 350.174687 
L 265.04885 349.537816 
L 265.863746 349.392874 
L 266.678642 349.09781 
L 267.493538 348.478762 
L 270.753122 347.653892 
L 271.568018 347.223464 
L 272.382913 344.671715 
L 273.197809 344.369843 
L 274.012705 345.94807 
L 274.827601 346.280306 
L 278.087185 344.94249 
L 279.716977 344.476316 
L 280.531873 343.803378 
L 281.346769 343.627668 
L 282.161665 342.535343 
L 282.976561 342.043777 
L 284.606353 342.400341 
L 285.421249 339.884487 
L 286.236145 339.076522 
L 287.051041 340.856957 
L 287.865936 340.81475 
L 290.310624 339.577857 
L 291.940416 339.11294 
L 292.755312 338.02771 
L 293.570208 337.610703 
L 294.385104 337.776376 
L 296.014896 336.96118 
L 296.829792 336.369757 
L 297.644688 335.950248 
L 298.459584 323.176268 
L 299.27448 322.907853 
L 300.089376 332.781384 
L 301.719168 334.413474 
L 302.534064 334.255756 
L 303.348959 332.948967 
L 304.978751 332.635588 
L 305.793647 332.209402 
L 306.608543 331.318383 
L 308.238335 330.71441 
L 309.053231 330.048271 
L 309.868127 329.579104 
L 310.683023 329.609627 
L 311.497919 324.337622 
L 312.312815 324.8657 
L 313.127711 328.190136 
L 314.757503 326.682946 
L 315.572399 326.420174 
L 316.387295 325.294151 
L 317.202191 325.020814 
L 318.017087 325.609813 
L 318.831982 325.171465 
L 319.646878 323.603618 
L 320.461774 322.444454 
L 321.27667 320.675781 
L 322.091566 320.9154 
L 322.906462 319.916834 
L 323.721358 318.202912 
L 324.536254 313.990156 
L 325.35115 313.695042 
L 326.166046 317.522353 
L 326.980942 316.985864 
L 327.795838 316.169743 
L 328.610734 315.682234 
L 329.42563 315.060734 
L 330.240526 314.616532 
L 331.055422 314.800165 
L 331.870318 314.527391 
L 332.685214 313.610382 
L 333.50011 312.237227 
L 334.315005 312.460762 
L 335.944797 311.5157 
L 336.759693 310.921165 
L 337.574589 304.337961 
L 338.389485 304.564692 
L 339.204381 307.971392 
L 340.019277 307.93854 
L 340.834173 307.262565 
L 342.463965 306.28886 
L 343.278861 305.089346 
L 344.093757 306.197735 
L 344.908653 305.71622 
L 345.723549 303.748852 
L 346.538445 304.100188 
L 347.353341 303.661349 
L 348.168237 302.976662 
L 348.983133 302.071293 
L 349.798028 300.802529 
L 350.612924 292.57967 
L 351.42782 292.287741 
L 352.242716 298.84843 
L 353.057612 298.246562 
L 353.872508 298.251724 
L 354.687404 298.101578 
L 355.5023 293.894792 
L 356.317196 293.362163 
L 357.132092 296.243236 
L 357.946988 295.915851 
L 358.761884 293.008383 
L 359.57678 293.270152 
L 360.391676 292.694381 
L 361.206572 292.664826 
L 362.021468 288.452675 
L 362.836364 287.74447 
L 363.65126 283.083379 
L 364.466156 281.105559 
L 365.281051 286.929897 
L 366.095947 286.803123 
L 366.910843 284.868331 
L 367.725739 284.389889 
L 368.540635 277.96186 
L 369.355531 276.870967 
L 370.170427 284.177374 
L 370.985323 283.391382 
L 371.800219 279.421664 
L 372.615115 279.421851 
L 373.430011 279.899514 
L 374.244907 277.887105 
L 375.059803 276.877451 
L 375.874699 277.199896 
L 376.689595 267.824617 
L 377.504491 266.75278 
L 378.319387 273.949377 
L 379.134283 273.348866 
L 379.949179 272.986469 
L 380.764074 271.958513 
L 381.57897 270.677976 
L 382.393866 269.60876 
L 383.208762 270.355987 
L 384.023658 269.22947 
L 384.838554 264.994644 
L 385.65345 264.092185 
L 386.468346 265.106811 
L 387.283242 264.321472 
L 388.098138 257.935656 
L 388.913034 257.649354 
L 389.72793 251.632105 
L 390.542826 251.901981 
L 391.357722 258.979112 
L 392.172618 257.787878 
L 392.987514 258.477832 
L 393.80241 258.40366 
L 394.617306 255.38512 
L 395.432202 255.222544 
L 396.247097 255.821336 
L 397.061993 254.70256 
L 397.876889 251.027677 
L 398.691785 250.23339 
L 399.506681 251.114187 
L 400.321577 250.532901 
L 401.136473 248.744807 
L 401.951369 248.028748 
L 402.766265 220.550615 
L 403.581161 223.704433 
L 404.396057 243.487906 
L 405.210953 241.38626 
L 406.025849 241.760718 
L 406.840745 240.048017 
L 407.655641 235.067991 
L 408.470537 234.334411 
L 409.285433 237.796807 
L 410.100329 236.479434 
L 410.915225 229.437121 
L 411.73012 227.953789 
L 412.545016 232.075984 
L 413.359912 231.395718 
L 414.174808 225.200047 
L 414.989704 224.284056 
L 415.8046 218.91432 
L 416.619496 217.97185 
L 417.434392 224.098423 
L 418.249288 223.250022 
L 419.064184 221.721674 
L 419.87908 220.769403 
L 420.693976 216.951982 
L 421.508872 215.841422 
L 422.323768 216.361757 
L 423.138664 215.842589 
L 423.95356 199.813891 
L 424.768456 206.930009 
L 425.583352 210.422947 
L 426.398248 209.49437 
L 427.213143 206.713199 
L 428.028039 205.207925 
L 428.842935 199.565685 
L 429.657831 198.297346 
L 430.472727 201.28137 
L 431.287623 199.648455 
L 432.102519 198.776888 
L 432.917415 197.696567 
L 433.732311 195.31233 
L 435.362103 193.53968 
L 436.176999 191.921643 
L 436.991895 192.545218 
L 437.806791 191.25368 
L 438.621687 186.997793 
L 439.436583 185.011388 
L 440.251479 185.678072 
L 441.881271 178.399026 
L 442.696166 177.028305 
L 443.511062 179.405905 
L 444.325958 176.913571 
L 445.140854 176.211024 
L 445.95575 174.709069 
L 446.770646 174.929102 
L 447.585542 172.161777 
L 448.400438 167.977858 
L 449.215334 166.905525 
L 450.03023 168.061079 
L 450.845126 166.011692 
L 451.660022 166.27476 
L 452.474918 164.846331 
L 453.289814 161.548628 
L 454.10471 159.838761 
L 454.919606 153.159947 
L 455.734502 151.743559 
L 456.549398 155.219054 
L 457.364294 154.103482 
L 458.179189 153.340047 
L 458.994085 152.351984 
L 459.808981 146.441616 
L 460.623877 145.680575 
L 461.438773 142.283701 
L 462.253669 140.747825 
L 463.068565 142.207849 
L 463.883461 141.808237 
L 464.698357 136.180914 
L 465.513253 134.846718 
L 466.328149 135.439916 
L 467.143045 132.380807 
L 467.957941 128.686254 
L 469.587733 126.732896 
L 470.402629 127.17062 
L 471.217525 125.209112 
L 472.032421 109.216808 
L 472.847317 120.208685 
L 474.477108 116.98234 
L 475.292004 115.79704 
L 476.1069 116.094577 
L 477.736692 110.964846 
L 478.551588 108.883932 
L 479.366484 109.291311 
L 480.18138 107.721457 
L 480.996276 104.852289 
L 481.811172 103.608032 
L 482.626068 101.517856 
L 483.440964 100.20248 
L 484.25586 97.001391 
L 485.885652 93.292175 
L 486.700548 89.073184 
L 487.515444 89.305487 
L 488.33034 88.41735 
L 489.145235 86.966033 
L 489.960131 85.009348 
L 490.775027 83.586917 
L 492.404819 80.011735 
L 493.219715 77.047651 
L 494.034611 70.843117 
L 494.849507 70.539427 
L 495.664403 72.042916 
L 496.479299 70.977065 
L 497.294195 68.661953 
L 498.109091 66.96 
L 498.109091 66.96 
" clip-path="url(#pe9d7e190f7)" style="fill: none; stroke: #008000; stroke-width: 1.5; stroke-linecap: square"/>
   </g>
   <g id="patch_3">
    <path d="M 72 384.48 
L 72 51.84 
" style="fill: none; stroke: #000000; stroke-width: 0.8; stroke-linejoin: miter; stroke-linecap: square"/>
   </g>
   <g id="patch_4">
    <path d="M 518.4 384.48 
L 518.4 51.84 
" style="fill: none; stroke: #000000; stroke-width: 0.8; stroke-linejoin: miter; stroke-linecap: square"/>
   </g>
   <g id="patch_5">
    <path d="M 72 384.48 
L 518.4 384.48 
" style="fill: none; stroke: #000000; stroke-width: 0.8; stroke-linejoin: miter; stroke-linecap: square"/>
   </g>
   <g id="patch_6">
    <path d="M 72 51.84 
L 518.4 51.84 
" style="fill: none; stroke: #000000; stroke-width: 0.8; stroke-linejoin: miter; stroke-linecap: square"/>
   </g>
   <g id="text_15">
    <!-- Время выполнения алгоритма Винограда -->
    <g transform="translate(163.1625 45.84) scale(0.12 -0.12)">
     <defs>
      <path id="DejaVuSans-432" d="M 1156 1613 
L 1156 459 
L 1975 459 
Q 2369 459 2575 607 
Q 2781 756 2781 1038 
Q 2781 1319 2575 1466 
Q 2369 1613 1975 1613 
L 1156 1613 
z
M 1156 3041 
L 1156 2072 
L 1913 2072 
Q 2238 2072 2444 2201 
Q 2650 2331 2650 2563 
Q 2650 2794 2444 2917 
Q 2238 3041 1913 3041 
L 1156 3041 
z
M 581 3500 
L 1950 3500 
Q 2566 3500 2897 3275 
Q 3228 3050 3228 2634 
Q 3228 2313 3059 2123 
Q 2891 1934 2559 1888 
Q 2956 1813 3175 1575 
Q 3394 1338 3394 981 
Q 3394 513 3033 256 
Q 2672 0 2003 0 
L 581 0 
L 581 3500 
z
" transform="scale(0.015625)"/>
      <path id="DejaVuSans-43f" d="M 3603 3500 
L 3603 0 
L 3025 0 
L 3025 3041 
L 1159 3041 
L 1159 0 
L 581 0 
L 581 3500 
L 3603 3500 
z
" transform="scale(0.015625)"/>
      <path id="DejaVuSans-43e" d="M 1959 3097 
Q 1497 3097 1228 2736 
Q 959 2375 959 1747 
Q 959 1119 1226 758 
Q 1494 397 1959 397 
Q 2419 397 2687 759 
Q 2956 1122 2956 1747 
Q 2956 2369 2687 2733 
Q 2419 3097 1959 3097 
z
M 1959 3584 
Q 2709 3584 3137 3096 
Q 3566 2609 3566 1747 
Q 3566 888 3137 398 
Q 2709 -91 1959 -91 
Q 1206 -91 779 398 
Q 353 888 353 1747 
Q 353 2609 779 3096 
Q 1206 3584 1959 3584 
z
" transform="scale(0.015625)"/>
      <path id="DejaVuSans-43b" d="M 238 0 
L 238 478 
Q 806 566 981 959 
Q 1194 1513 1194 2928 
L 1194 3500 
L 3559 3500 
L 3559 0 
L 2984 0 
L 2984 3041 
L 1769 3041 
L 1769 2694 
Q 1769 1344 1494 738 
Q 1200 91 238 0 
z
" transform="scale(0.015625)"/>
      <path id="DejaVuSans-43d" d="M 581 3500 
L 1159 3500 
L 1159 2072 
L 3025 2072 
L 3025 3500 
L 3603 3500 
L 3603 0 
L 3025 0 
L 3025 1613 
L 1159 1613 
L 1159 0 
L 581 0 
L 581 3500 
z
" transform="scale(0.015625)"/>
      <path id="DejaVuSans-433" d="M 581 0 
L 581 3500 
L 3050 3500 
L 3050 3041 
L 1159 3041 
L 1159 0 
L 581 0 
z
" transform="scale(0.015625)"/>
      <path id="DejaVuSans-434" d="M 1384 459 
L 3053 459 
L 3053 3041 
L 1844 3041 
L 1844 2603 
Q 1844 1316 1475 628 
L 1384 459 
z
M 550 459 
Q 834 584 959 850 
Q 1266 1509 1266 2838 
L 1266 3500 
L 3631 3500 
L 3631 459 
L 4091 459 
L 4091 -884 
L 3631 -884 
L 3631 0 
L 794 0 
L 794 -884 
L 334 -884 
L 334 459 
L 550 459 
z
" transform="scale(0.015625)"/>
     </defs>
     <use xlink:href="#DejaVuSans-412"/>
     <use xlink:href="#DejaVuSans-440" transform="translate(68.603516 0)"/>
     <use xlink:href="#DejaVuSans-435" transform="translate(132.080078 0)"/>
     <use xlink:href="#DejaVuSans-43c" transform="translate(193.603516 0)"/>
     <use xlink:href="#DejaVuSans-44f" transform="translate(269.042969 0)"/>
     <use xlink:href="#DejaVuSans-20" transform="translate(329.199219 0)"/>
     <use xlink:href="#DejaVuSans-432" transform="translate(360.986328 0)"/>
     <use xlink:href="#DejaVuSans-44b" transform="translate(419.921875 0)"/>
     <use xlink:href="#DejaVuSans-43f" transform="translate(498.876953 0)"/>
     <use xlink:href="#DejaVuSans-43e" transform="translate(564.257812 0)"/>
     <use xlink:href="#DejaVuSans-43b" transform="translate(625.439453 0)"/>
     <use xlink:href="#DejaVuSans-43d" transform="translate(689.355469 0)"/>
     <use xlink:href="#DejaVuSans-435" transform="translate(754.736328 0)"/>
     <use xlink:href="#DejaVuSans-43d" transform="translate(816.259766 0)"/>
     <use xlink:href="#DejaVuSans-438" transform="translate(881.640625 0)"/>
     <use xlink:href="#DejaVuSans-44f" transform="translate(946.630859 0)"/>
     <use xlink:href="#DejaVuSans-20" transform="translate(1006.787109 0)"/>
     <use xlink:href="#DejaVuSans-430" transform="translate(1038.574219 0)"/>
     <use xlink:href="#DejaVuSans-43b" transform="translate(1099.853516 0)"/>
     <use xlink:href="#DejaVuSans-433" transform="translate(1163.769531 0)"/>
     <use xlink:href="#DejaVuSans-43e" transform="translate(1216.308594 0)"/>
     <use xlink:href="#DejaVuSans-440" transform="translate(1277.490234 0)"/>
     <use xlink:href="#DejaVuSans-438" transform="translate(1340.966797 0)"/>
     <use xlink:href="#DejaVuSans-442" transform="translate(1405.957031 0)"/>
     <use xlink:href="#DejaVuSans-43c" transform="translate(1464.208984 0)"/>
     <use xlink:href="#DejaVuSans-430" transform="translate(1539.648438 0)"/>
     <use xlink:href="#DejaVuSans-20" transform="translate(1600.927734 0)"/>
     <use xlink:href="#DejaVuSans-412" transform="translate(1632.714844 0)"/>
     <use xlink:href="#DejaVuSans-438" transform="translate(1701.318359 0)"/>
     <use xlink:href="#DejaVuSans-43d" transform="translate(1766.308594 0)"/>
     <use xlink:href="#DejaVuSans-43e" transform="translate(1831.689453 0)"/>
     <use xlink:href="#DejaVuSans-433" transform="translate(1892.871094 0)"/>
     <use xlink:href="#DejaVuSans-440" transform="translate(1945.410156 0)"/>
     <use xlink:href="#DejaVuSans-430" transform="translate(2008.886719 0)"/>
     <use xlink:href="#DejaVuSans-434" transform="translate(2070.166016 0)"/>
     <use xlink:href="#DejaVuSans-430" transform="translate(2139.306641 0)"/>
    </g>
   </g>
  </g>
 </g>
 <defs>
  <clipPath id="pe9d7e190f7">
   <rect x="72" y="51.84" width="446.4" height="332.64"/>
  </clipPath>
 </defs>
</svg>
