<?xml version="1.0" encoding="utf-8" standalone="no"?>
<!DOCTYPE svg PUBLIC "-//W3C//DTD SVG 1.1//EN"
  "http://www.w3.org/Graphics/SVG/1.1/DTD/svg11.dtd">
<svg xmlns:xlink="http://www.w3.org/1999/xlink" width="817.26375pt" height="572.929687pt" viewBox="0 0 817.26375 572.929687" xmlns="http://www.w3.org/2000/svg" version="1.1">
 <metadata>
  <rdf:RDF xmlns:dc="http://purl.org/dc/elements/1.1/" xmlns:cc="http://creativecommons.org/ns#" xmlns:rdf="http://www.w3.org/1999/02/22-rdf-syntax-ns#">
   <cc:Work>
    <dc:type rdf:resource="http://purl.org/dc/dcmitype/StillImage"/>
    <dc:date>2025-10-12T23:45:28.453253</dc:date>
    <dc:format>image/svg+xml</dc:format>
    <dc:creator>
     <cc:Agent>
      <dc:title>Matplotlib v3.10.1, https://matplotlib.org/</dc:title>
     </cc:Agent>
    </dc:creator>
   </cc:Work>
  </rdf:RDF>
 </metadata>
 <defs>
  <style type="text/css">*{stroke-linejoin: round; stroke-linecap: butt}</style>
 </defs>
 <g id="figure_1">
  <g id="patch_1">
   <path d="M 0 572.929687 
L 817.26375 572.929687 
L 817.26375 -0 
L 0 -0 
z
" style="fill: #ffffff"/>
  </g>
  <g id="axes_1">
   <g id="patch_2">
    <path d="M 90.06375 498.637812 
L 781.26375 498.637812 
L 781.26375 66.637812 
L 90.06375 66.637812 
z
" style="fill: #ffffff"/>
   </g>
   <g id="matplotlib.axis_1">
    <g id="xtick_1">
     <g id="line2d_1">
      <path d="M 121.481932 498.637812 
L 121.481932 66.637812 
" clip-path="url(#p64a76f0803)" style="fill: none; stroke: #b0b0b0; stroke-opacity: 0.3; stroke-width: 0.8; stroke-linecap: square"/>
     </g>
     <g id="line2d_2">
      <defs>
       <path id="m12aef6eaf2" d="M 0 0 
L 0 3.5 
" style="stroke: #000000; stroke-width: 0.8"/>
      </defs>
      <g>
       <use xlink:href="#m12aef6eaf2" x="121.481932" y="498.637812" style="stroke: #000000; stroke-width: 0.8"/>
      </g>
     </g>
     <g id="text_1">
      <!-- 0 -->
      <g transform="translate(118.300682 513.23625) scale(0.1 -0.1)">
       <defs>
        <path id="DejaVuSans-30" d="M 2034 4250 
Q 1547 4250 1301 3770 
Q 1056 3291 1056 2328 
Q 1056 1369 1301 889 
Q 1547 409 2034 409 
Q 2525 409 2770 889 
Q 3016 1369 3016 2328 
Q 3016 3291 2770 3770 
Q 2525 4250 2034 4250 
z
M 2034 4750 
Q 2819 4750 3233 4129 
Q 3647 3509 3647 2328 
Q 3647 1150 3233 529 
Q 2819 -91 2034 -91 
Q 1250 -91 836 529 
Q 422 1150 422 2328 
Q 422 3509 836 4129 
Q 1250 4750 2034 4750 
z
" transform="scale(0.015625)"/>
       </defs>
       <use xlink:href="#DejaVuSans-30"/>
      </g>
     </g>
    </g>
    <g id="xtick_2">
     <g id="line2d_3">
      <path d="M 247.154659 498.637812 
L 247.154659 66.637812 
" clip-path="url(#p64a76f0803)" style="fill: none; stroke: #b0b0b0; stroke-opacity: 0.3; stroke-width: 0.8; stroke-linecap: square"/>
     </g>
     <g id="line2d_4">
      <g>
       <use xlink:href="#m12aef6eaf2" x="247.154659" y="498.637812" style="stroke: #000000; stroke-width: 0.8"/>
      </g>
     </g>
     <g id="text_2">
      <!-- 200 -->
      <g transform="translate(237.610909 513.23625) scale(0.1 -0.1)">
       <defs>
        <path id="DejaVuSans-32" d="M 1228 531 
L 3431 531 
L 3431 0 
L 469 0 
L 469 531 
Q 828 903 1448 1529 
Q 2069 2156 2228 2338 
Q 2531 2678 2651 2914 
Q 2772 3150 2772 3378 
Q 2772 3750 2511 3984 
Q 2250 4219 1831 4219 
Q 1534 4219 1204 4116 
Q 875 4013 500 3803 
L 500 4441 
Q 881 4594 1212 4672 
Q 1544 4750 1819 4750 
Q 2544 4750 2975 4387 
Q 3406 4025 3406 3419 
Q 3406 3131 3298 2873 
Q 3191 2616 2906 2266 
Q 2828 2175 2409 1742 
Q 1991 1309 1228 531 
z
" transform="scale(0.015625)"/>
       </defs>
       <use xlink:href="#DejaVuSans-32"/>
       <use xlink:href="#DejaVuSans-30" transform="translate(63.623047 0)"/>
       <use xlink:href="#DejaVuSans-30" transform="translate(127.246094 0)"/>
      </g>
     </g>
    </g>
    <g id="xtick_3">
     <g id="line2d_5">
      <path d="M 372.827386 498.637812 
L 372.827386 66.637812 
" clip-path="url(#p64a76f0803)" style="fill: none; stroke: #b0b0b0; stroke-opacity: 0.3; stroke-width: 0.8; stroke-linecap: square"/>
     </g>
     <g id="line2d_6">
      <g>
       <use xlink:href="#m12aef6eaf2" x="372.827386" y="498.637812" style="stroke: #000000; stroke-width: 0.8"/>
      </g>
     </g>
     <g id="text_3">
      <!-- 400 -->
      <g transform="translate(363.283636 513.23625) scale(0.1 -0.1)">
       <defs>
        <path id="DejaVuSans-34" d="M 2419 4116 
L 825 1625 
L 2419 1625 
L 2419 4116 
z
M 2253 4666 
L 3047 4666 
L 3047 1625 
L 3713 1625 
L 3713 1100 
L 3047 1100 
L 3047 0 
L 2419 0 
L 2419 1100 
L 313 1100 
L 313 1709 
L 2253 4666 
z
" transform="scale(0.015625)"/>
       </defs>
       <use xlink:href="#DejaVuSans-34"/>
       <use xlink:href="#DejaVuSans-30" transform="translate(63.623047 0)"/>
       <use xlink:href="#DejaVuSans-30" transform="translate(127.246094 0)"/>
      </g>
     </g>
    </g>
    <g id="xtick_4">
     <g id="line2d_7">
      <path d="M 498.500114 498.637812 
L 498.500114 66.637812 
" clip-path="url(#p64a76f0803)" style="fill: none; stroke: #b0b0b0; stroke-opacity: 0.3; stroke-width: 0.8; stroke-linecap: square"/>
     </g>
     <g id="line2d_8">
      <g>
       <use xlink:href="#m12aef6eaf2" x="498.500114" y="498.637812" style="stroke: #000000; stroke-width: 0.8"/>
      </g>
     </g>
     <g id="text_4">
      <!-- 600 -->
      <g transform="translate(488.956364 513.23625) scale(0.1 -0.1)">
       <defs>
        <path id="DejaVuSans-36" d="M 2113 2584 
Q 1688 2584 1439 2293 
Q 1191 2003 1191 1497 
Q 1191 994 1439 701 
Q 1688 409 2113 409 
Q 2538 409 2786 701 
Q 3034 994 3034 1497 
Q 3034 2003 2786 2293 
Q 2538 2584 2113 2584 
z
M 3366 4563 
L 3366 3988 
Q 3128 4100 2886 4159 
Q 2644 4219 2406 4219 
Q 1781 4219 1451 3797 
Q 1122 3375 1075 2522 
Q 1259 2794 1537 2939 
Q 1816 3084 2150 3084 
Q 2853 3084 3261 2657 
Q 3669 2231 3669 1497 
Q 3669 778 3244 343 
Q 2819 -91 2113 -91 
Q 1303 -91 875 529 
Q 447 1150 447 2328 
Q 447 3434 972 4092 
Q 1497 4750 2381 4750 
Q 2619 4750 2861 4703 
Q 3103 4656 3366 4563 
z
" transform="scale(0.015625)"/>
       </defs>
       <use xlink:href="#DejaVuSans-36"/>
       <use xlink:href="#DejaVuSans-30" transform="translate(63.623047 0)"/>
       <use xlink:href="#DejaVuSans-30" transform="translate(127.246094 0)"/>
      </g>
     </g>
    </g>
    <g id="xtick_5">
     <g id="line2d_9">
      <path d="M 624.172841 498.637812 
L 624.172841 66.637812 
" clip-path="url(#p64a76f0803)" style="fill: none; stroke: #b0b0b0; stroke-opacity: 0.3; stroke-width: 0.8; stroke-linecap: square"/>
     </g>
     <g id="line2d_10">
      <g>
       <use xlink:href="#m12aef6eaf2" x="624.172841" y="498.637812" style="stroke: #000000; stroke-width: 0.8"/>
      </g>
     </g>
     <g id="text_5">
      <!-- 800 -->
      <g transform="translate(614.629091 513.23625) scale(0.1 -0.1)">
       <defs>
        <path id="DejaVuSans-38" d="M 2034 2216 
Q 1584 2216 1326 1975 
Q 1069 1734 1069 1313 
Q 1069 891 1326 650 
Q 1584 409 2034 409 
Q 2484 409 2743 651 
Q 3003 894 3003 1313 
Q 3003 1734 2745 1975 
Q 2488 2216 2034 2216 
z
M 1403 2484 
Q 997 2584 770 2862 
Q 544 3141 544 3541 
Q 544 4100 942 4425 
Q 1341 4750 2034 4750 
Q 2731 4750 3128 4425 
Q 3525 4100 3525 3541 
Q 3525 3141 3298 2862 
Q 3072 2584 2669 2484 
Q 3125 2378 3379 2068 
Q 3634 1759 3634 1313 
Q 3634 634 3220 271 
Q 2806 -91 2034 -91 
Q 1263 -91 848 271 
Q 434 634 434 1313 
Q 434 1759 690 2068 
Q 947 2378 1403 2484 
z
M 1172 3481 
Q 1172 3119 1398 2916 
Q 1625 2713 2034 2713 
Q 2441 2713 2670 2916 
Q 2900 3119 2900 3481 
Q 2900 3844 2670 4047 
Q 2441 4250 2034 4250 
Q 1625 4250 1398 4047 
Q 1172 3844 1172 3481 
z
" transform="scale(0.015625)"/>
       </defs>
       <use xlink:href="#DejaVuSans-38"/>
       <use xlink:href="#DejaVuSans-30" transform="translate(63.623047 0)"/>
       <use xlink:href="#DejaVuSans-30" transform="translate(127.246094 0)"/>
      </g>
     </g>
    </g>
    <g id="xtick_6">
     <g id="line2d_11">
      <path d="M 749.845568 498.637812 
L 749.845568 66.637812 
" clip-path="url(#p64a76f0803)" style="fill: none; stroke: #b0b0b0; stroke-opacity: 0.3; stroke-width: 0.8; stroke-linecap: square"/>
     </g>
     <g id="line2d_12">
      <g>
       <use xlink:href="#m12aef6eaf2" x="749.845568" y="498.637812" style="stroke: #000000; stroke-width: 0.8"/>
      </g>
     </g>
     <g id="text_6">
      <!-- 1000 -->
      <g transform="translate(737.120568 513.23625) scale(0.1 -0.1)">
       <defs>
        <path id="DejaVuSans-31" d="M 794 531 
L 1825 531 
L 1825 4091 
L 703 3866 
L 703 4441 
L 1819 4666 
L 2450 4666 
L 2450 531 
L 3481 531 
L 3481 0 
L 794 0 
L 794 531 
z
" transform="scale(0.015625)"/>
       </defs>
       <use xlink:href="#DejaVuSans-31"/>
       <use xlink:href="#DejaVuSans-30" transform="translate(63.623047 0)"/>
       <use xlink:href="#DejaVuSans-30" transform="translate(127.246094 0)"/>
       <use xlink:href="#DejaVuSans-30" transform="translate(190.869141 0)"/>
      </g>
     </g>
    </g>
    <g id="text_7">
     <!-- Длина последовательности -->
     <g transform="translate(347.4375 534.434062) scale(0.12 -0.12)">
      <defs>
       <path id="DejaVuSans-414" d="M 1459 531 
L 3522 531 
L 3522 4134 
L 2006 4134 
L 2006 3472 
Q 2006 1913 1656 878 
Q 1584 666 1459 531 
z
M 538 531 
Q 956 728 1075 1103 
Q 1378 2066 1378 3784 
L 1378 4666 
L 4153 4666 
L 4153 531 
L 4684 531 
L 4684 -1003 
L 4153 -1003 
L 4153 0 
L 847 0 
L 847 -1003 
L 316 -1003 
L 316 531 
L 538 531 
z
" transform="scale(0.015625)"/>
       <path id="DejaVuSans-43b" d="M 238 0 
L 238 478 
Q 806 566 981 959 
Q 1194 1513 1194 2928 
L 1194 3500 
L 3559 3500 
L 3559 0 
L 2984 0 
L 2984 3041 
L 1769 3041 
L 1769 2694 
Q 1769 1344 1494 738 
Q 1200 91 238 0 
z
" transform="scale(0.015625)"/>
       <path id="DejaVuSans-438" d="M 3578 3500 
L 3578 0 
L 3006 0 
L 3006 2809 
L 1319 0 
L 581 0 
L 581 3500 
L 1153 3500 
L 1153 697 
L 2838 3500 
L 3578 3500 
z
" transform="scale(0.015625)"/>
       <path id="DejaVuSans-43d" d="M 581 3500 
L 1159 3500 
L 1159 2072 
L 3025 2072 
L 3025 3500 
L 3603 3500 
L 3603 0 
L 3025 0 
L 3025 1613 
L 1159 1613 
L 1159 0 
L 581 0 
L 581 3500 
z
" transform="scale(0.015625)"/>
       <path id="DejaVuSans-430" d="M 2194 1759 
Q 1497 1759 1228 1600 
Q 959 1441 959 1056 
Q 959 750 1161 570 
Q 1363 391 1709 391 
Q 2188 391 2477 730 
Q 2766 1069 2766 1631 
L 2766 1759 
L 2194 1759 
z
M 3341 1997 
L 3341 0 
L 2766 0 
L 2766 531 
Q 2569 213 2275 61 
Q 1981 -91 1556 -91 
Q 1019 -91 701 211 
Q 384 513 384 1019 
Q 384 1609 779 1909 
Q 1175 2209 1959 2209 
L 2766 2209 
L 2766 2266 
Q 2766 2663 2505 2880 
Q 2244 3097 1772 3097 
Q 1472 3097 1187 3025 
Q 903 2953 641 2809 
L 641 3341 
Q 956 3463 1253 3523 
Q 1550 3584 1831 3584 
Q 2591 3584 2966 3190 
Q 3341 2797 3341 1997 
z
" transform="scale(0.015625)"/>
       <path id="DejaVuSans-20" transform="scale(0.015625)"/>
       <path id="DejaVuSans-43f" d="M 3603 3500 
L 3603 0 
L 3025 0 
L 3025 3041 
L 1159 3041 
L 1159 0 
L 581 0 
L 581 3500 
L 3603 3500 
z
" transform="scale(0.015625)"/>
       <path id="DejaVuSans-43e" d="M 1959 3097 
Q 1497 3097 1228 2736 
Q 959 2375 959 1747 
Q 959 1119 1226 758 
Q 1494 397 1959 397 
Q 2419 397 2687 759 
Q 2956 1122 2956 1747 
Q 2956 2369 2687 2733 
Q 2419 3097 1959 3097 
z
M 1959 3584 
Q 2709 3584 3137 3096 
Q 3566 2609 3566 1747 
Q 3566 888 3137 398 
Q 2709 -91 1959 -91 
Q 1206 -91 779 398 
Q 353 888 353 1747 
Q 353 2609 779 3096 
Q 1206 3584 1959 3584 
z
" transform="scale(0.015625)"/>
       <path id="DejaVuSans-441" d="M 3122 3366 
L 3122 2828 
Q 2878 2963 2633 3030 
Q 2388 3097 2138 3097 
Q 1578 3097 1268 2742 
Q 959 2388 959 1747 
Q 959 1106 1268 751 
Q 1578 397 2138 397 
Q 2388 397 2633 464 
Q 2878 531 3122 666 
L 3122 134 
Q 2881 22 2623 -34 
Q 2366 -91 2075 -91 
Q 1284 -91 818 406 
Q 353 903 353 1747 
Q 353 2603 823 3093 
Q 1294 3584 2113 3584 
Q 2378 3584 2631 3529 
Q 2884 3475 3122 3366 
z
" transform="scale(0.015625)"/>
       <path id="DejaVuSans-435" d="M 3597 1894 
L 3597 1613 
L 953 1613 
Q 991 1019 1311 708 
Q 1631 397 2203 397 
Q 2534 397 2845 478 
Q 3156 559 3463 722 
L 3463 178 
Q 3153 47 2828 -22 
Q 2503 -91 2169 -91 
Q 1331 -91 842 396 
Q 353 884 353 1716 
Q 353 2575 817 3079 
Q 1281 3584 2069 3584 
Q 2775 3584 3186 3129 
Q 3597 2675 3597 1894 
z
M 3022 2063 
Q 3016 2534 2758 2815 
Q 2500 3097 2075 3097 
Q 1594 3097 1305 2825 
Q 1016 2553 972 2059 
L 3022 2063 
z
" transform="scale(0.015625)"/>
       <path id="DejaVuSans-434" d="M 1384 459 
L 3053 459 
L 3053 3041 
L 1844 3041 
L 1844 2603 
Q 1844 1316 1475 628 
L 1384 459 
z
M 550 459 
Q 834 584 959 850 
Q 1266 1509 1266 2838 
L 1266 3500 
L 3631 3500 
L 3631 459 
L 4091 459 
L 4091 -884 
L 3631 -884 
L 3631 0 
L 794 0 
L 794 -884 
L 334 -884 
L 334 459 
L 550 459 
z
" transform="scale(0.015625)"/>
       <path id="DejaVuSans-432" d="M 1156 1613 
L 1156 459 
L 1975 459 
Q 2369 459 2575 607 
Q 2781 756 2781 1038 
Q 2781 1319 2575 1466 
Q 2369 1613 1975 1613 
L 1156 1613 
z
M 1156 3041 
L 1156 2072 
L 1913 2072 
Q 2238 2072 2444 2201 
Q 2650 2331 2650 2563 
Q 2650 2794 2444 2917 
Q 2238 3041 1913 3041 
L 1156 3041 
z
M 581 3500 
L 1950 3500 
Q 2566 3500 2897 3275 
Q 3228 3050 3228 2634 
Q 3228 2313 3059 2123 
Q 2891 1934 2559 1888 
Q 2956 1813 3175 1575 
Q 3394 1338 3394 981 
Q 3394 513 3033 256 
Q 2672 0 2003 0 
L 581 0 
L 581 3500 
z
" transform="scale(0.015625)"/>
       <path id="DejaVuSans-442" d="M 188 3500 
L 3541 3500 
L 3541 3041 
L 2147 3041 
L 2147 0 
L 1581 0 
L 1581 3041 
L 188 3041 
L 188 3500 
z
" transform="scale(0.015625)"/>
       <path id="DejaVuSans-44c" d="M 2781 1038 
Q 2781 1319 2576 1466 
Q 2372 1613 1978 1613 
L 1159 1613 
L 1159 459 
L 1978 459 
Q 2372 459 2576 607 
Q 2781 756 2781 1038 
z
M 581 3500 
L 1159 3500 
L 1159 2072 
L 2003 2072 
Q 2672 2072 3033 1817 
Q 3394 1563 3394 1038 
Q 3394 513 3033 256 
Q 2672 0 2003 0 
L 581 0 
L 581 3500 
z
" transform="scale(0.015625)"/>
      </defs>
      <use xlink:href="#DejaVuSans-414"/>
      <use xlink:href="#DejaVuSans-43b" transform="translate(78.125 0)"/>
      <use xlink:href="#DejaVuSans-438" transform="translate(142.041016 0)"/>
      <use xlink:href="#DejaVuSans-43d" transform="translate(207.03125 0)"/>
      <use xlink:href="#DejaVuSans-430" transform="translate(272.412109 0)"/>
      <use xlink:href="#DejaVuSans-20" transform="translate(333.691406 0)"/>
      <use xlink:href="#DejaVuSans-43f" transform="translate(365.478516 0)"/>
      <use xlink:href="#DejaVuSans-43e" transform="translate(430.859375 0)"/>
      <use xlink:href="#DejaVuSans-441" transform="translate(492.041016 0)"/>
      <use xlink:href="#DejaVuSans-43b" transform="translate(547.021484 0)"/>
      <use xlink:href="#DejaVuSans-435" transform="translate(610.9375 0)"/>
      <use xlink:href="#DejaVuSans-434" transform="translate(672.460938 0)"/>
      <use xlink:href="#DejaVuSans-43e" transform="translate(741.601562 0)"/>
      <use xlink:href="#DejaVuSans-432" transform="translate(802.783203 0)"/>
      <use xlink:href="#DejaVuSans-430" transform="translate(861.71875 0)"/>
      <use xlink:href="#DejaVuSans-442" transform="translate(922.998047 0)"/>
      <use xlink:href="#DejaVuSans-435" transform="translate(981.25 0)"/>
      <use xlink:href="#DejaVuSans-43b" transform="translate(1042.773438 0)"/>
      <use xlink:href="#DejaVuSans-44c" transform="translate(1106.689453 0)"/>
      <use xlink:href="#DejaVuSans-43d" transform="translate(1165.625 0)"/>
      <use xlink:href="#DejaVuSans-43e" transform="translate(1231.005859 0)"/>
      <use xlink:href="#DejaVuSans-441" transform="translate(1292.1875 0)"/>
      <use xlink:href="#DejaVuSans-442" transform="translate(1347.167969 0)"/>
      <use xlink:href="#DejaVuSans-438" transform="translate(1405.419922 0)"/>
     </g>
    </g>
   </g>
   <g id="matplotlib.axis_2">
    <g id="ytick_1">
     <g id="line2d_13">
      <path d="M 90.06375 480.422556 
L 781.26375 480.422556 
" clip-path="url(#p64a76f0803)" style="fill: none; stroke: #b0b0b0; stroke-opacity: 0.3; stroke-width: 0.8; stroke-linecap: square"/>
     </g>
     <g id="line2d_14">
      <defs>
       <path id="m86f458caaa" d="M 0 0 
L -3.5 0 
" style="stroke: #000000; stroke-width: 0.8"/>
      </defs>
      <g>
       <use xlink:href="#m86f458caaa" x="90.06375" y="480.422556" style="stroke: #000000; stroke-width: 0.8"/>
      </g>
     </g>
     <g id="text_8">
      <!-- 0 -->
      <g transform="translate(76.70125 484.221775) scale(0.1 -0.1)">
       <use xlink:href="#DejaVuSans-30"/>
      </g>
     </g>
    </g>
    <g id="ytick_2">
     <g id="line2d_15">
      <path d="M 90.06375 396.82799 
L 781.26375 396.82799 
" clip-path="url(#p64a76f0803)" style="fill: none; stroke: #b0b0b0; stroke-opacity: 0.3; stroke-width: 0.8; stroke-linecap: square"/>
     </g>
     <g id="line2d_16">
      <g>
       <use xlink:href="#m86f458caaa" x="90.06375" y="396.82799" style="stroke: #000000; stroke-width: 0.8"/>
      </g>
     </g>
     <g id="text_9">
      <!-- 2000 -->
      <g transform="translate(57.61375 400.627209) scale(0.1 -0.1)">
       <use xlink:href="#DejaVuSans-32"/>
       <use xlink:href="#DejaVuSans-30" transform="translate(63.623047 0)"/>
       <use xlink:href="#DejaVuSans-30" transform="translate(127.246094 0)"/>
       <use xlink:href="#DejaVuSans-30" transform="translate(190.869141 0)"/>
      </g>
     </g>
    </g>
    <g id="ytick_3">
     <g id="line2d_17">
      <path d="M 90.06375 313.233424 
L 781.26375 313.233424 
" clip-path="url(#p64a76f0803)" style="fill: none; stroke: #b0b0b0; stroke-opacity: 0.3; stroke-width: 0.8; stroke-linecap: square"/>
     </g>
     <g id="line2d_18">
      <g>
       <use xlink:href="#m86f458caaa" x="90.06375" y="313.233424" style="stroke: #000000; stroke-width: 0.8"/>
      </g>
     </g>
     <g id="text_10">
      <!-- 4000 -->
      <g transform="translate(57.61375 317.032643) scale(0.1 -0.1)">
       <use xlink:href="#DejaVuSans-34"/>
       <use xlink:href="#DejaVuSans-30" transform="translate(63.623047 0)"/>
       <use xlink:href="#DejaVuSans-30" transform="translate(127.246094 0)"/>
       <use xlink:href="#DejaVuSans-30" transform="translate(190.869141 0)"/>
      </g>
     </g>
    </g>
    <g id="ytick_4">
     <g id="line2d_19">
      <path d="M 90.06375 229.638857 
L 781.26375 229.638857 
" clip-path="url(#p64a76f0803)" style="fill: none; stroke: #b0b0b0; stroke-opacity: 0.3; stroke-width: 0.8; stroke-linecap: square"/>
     </g>
     <g id="line2d_20">
      <g>
       <use xlink:href="#m86f458caaa" x="90.06375" y="229.638857" style="stroke: #000000; stroke-width: 0.8"/>
      </g>
     </g>
     <g id="text_11">
      <!-- 6000 -->
      <g transform="translate(57.61375 233.438076) scale(0.1 -0.1)">
       <use xlink:href="#DejaVuSans-36"/>
       <use xlink:href="#DejaVuSans-30" transform="translate(63.623047 0)"/>
       <use xlink:href="#DejaVuSans-30" transform="translate(127.246094 0)"/>
       <use xlink:href="#DejaVuSans-30" transform="translate(190.869141 0)"/>
      </g>
     </g>
    </g>
    <g id="ytick_5">
     <g id="line2d_21">
      <path d="M 90.06375 146.044291 
L 781.26375 146.044291 
" clip-path="url(#p64a76f0803)" style="fill: none; stroke: #b0b0b0; stroke-opacity: 0.3; stroke-width: 0.8; stroke-linecap: square"/>
     </g>
     <g id="line2d_22">
      <g>
       <use xlink:href="#m86f458caaa" x="90.06375" y="146.044291" style="stroke: #000000; stroke-width: 0.8"/>
      </g>
     </g>
     <g id="text_12">
      <!-- 8000 -->
      <g transform="translate(57.61375 149.84351) scale(0.1 -0.1)">
       <use xlink:href="#DejaVuSans-38"/>
       <use xlink:href="#DejaVuSans-30" transform="translate(63.623047 0)"/>
       <use xlink:href="#DejaVuSans-30" transform="translate(127.246094 0)"/>
       <use xlink:href="#DejaVuSans-30" transform="translate(190.869141 0)"/>
      </g>
     </g>
    </g>
    <g id="text_13">
     <!-- Время (тики) -->
     <g transform="translate(45.118125 323.897187) rotate(-90) scale(0.12 -0.12)">
      <defs>
       <path id="DejaVuSans-412" d="M 1259 2228 
L 1259 519 
L 2272 519 
Q 2781 519 3026 730 
Q 3272 941 3272 1375 
Q 3272 1813 3026 2020 
Q 2781 2228 2272 2228 
L 1259 2228 
z
M 1259 4147 
L 1259 2741 
L 2194 2741 
Q 2656 2741 2882 2914 
Q 3109 3088 3109 3444 
Q 3109 3797 2882 3972 
Q 2656 4147 2194 4147 
L 1259 4147 
z
M 628 4666 
L 2241 4666 
Q 2963 4666 3353 4366 
Q 3744 4066 3744 3513 
Q 3744 3084 3544 2831 
Q 3344 2578 2956 2516 
Q 3422 2416 3680 2098 
Q 3938 1781 3938 1306 
Q 3938 681 3513 340 
Q 3088 0 2303 0 
L 628 0 
L 628 4666 
z
" transform="scale(0.015625)"/>
       <path id="DejaVuSans-440" d="M 1159 525 
L 1159 -1331 
L 581 -1331 
L 581 3500 
L 1159 3500 
L 1159 2969 
Q 1341 3281 1617 3432 
Q 1894 3584 2278 3584 
Q 2916 3584 3314 3078 
Q 3713 2572 3713 1747 
Q 3713 922 3314 415 
Q 2916 -91 2278 -91 
Q 1894 -91 1617 61 
Q 1341 213 1159 525 
z
M 3116 1747 
Q 3116 2381 2855 2742 
Q 2594 3103 2138 3103 
Q 1681 3103 1420 2742 
Q 1159 2381 1159 1747 
Q 1159 1113 1420 752 
Q 1681 391 2138 391 
Q 2594 391 2855 752 
Q 3116 1113 3116 1747 
z
" transform="scale(0.015625)"/>
       <path id="DejaVuSans-43c" d="M 581 3500 
L 1422 3500 
L 2416 1156 
L 3413 3500 
L 4247 3500 
L 4247 0 
L 3669 0 
L 3669 2950 
L 2703 672 
L 2128 672 
L 1159 2950 
L 1159 0 
L 581 0 
L 581 3500 
z
" transform="scale(0.015625)"/>
       <path id="DejaVuSans-44f" d="M 1181 2491 
Q 1181 2231 1381 2084 
Q 1581 1938 1953 1938 
L 2728 1938 
L 2728 3041 
L 1953 3041 
Q 1581 3041 1381 2897 
Q 1181 2753 1181 2491 
z
M 363 0 
L 1431 1534 
Q 1069 1616 828 1830 
Q 588 2044 588 2491 
Q 588 2997 923 3248 
Q 1259 3500 1938 3500 
L 3306 3500 
L 3306 0 
L 2728 0 
L 2728 1478 
L 2013 1478 
L 981 0 
L 363 0 
z
" transform="scale(0.015625)"/>
       <path id="DejaVuSans-28" d="M 1984 4856 
Q 1566 4138 1362 3434 
Q 1159 2731 1159 2009 
Q 1159 1288 1364 580 
Q 1569 -128 1984 -844 
L 1484 -844 
Q 1016 -109 783 600 
Q 550 1309 550 2009 
Q 550 2706 781 3412 
Q 1013 4119 1484 4856 
L 1984 4856 
z
" transform="scale(0.015625)"/>
       <path id="DejaVuSans-43a" d="M 581 3500 
L 1153 3500 
L 1153 1856 
L 2775 3500 
L 3481 3500 
L 2144 2147 
L 3653 0 
L 3009 0 
L 1769 1766 
L 1153 1141 
L 1153 0 
L 581 0 
L 581 3500 
z
" transform="scale(0.015625)"/>
       <path id="DejaVuSans-29" d="M 513 4856 
L 1013 4856 
Q 1481 4119 1714 3412 
Q 1947 2706 1947 2009 
Q 1947 1309 1714 600 
Q 1481 -109 1013 -844 
L 513 -844 
Q 928 -128 1133 580 
Q 1338 1288 1338 2009 
Q 1338 2731 1133 3434 
Q 928 4138 513 4856 
z
" transform="scale(0.015625)"/>
      </defs>
      <use xlink:href="#DejaVuSans-412"/>
      <use xlink:href="#DejaVuSans-440" transform="translate(68.603516 0)"/>
      <use xlink:href="#DejaVuSans-435" transform="translate(132.080078 0)"/>
      <use xlink:href="#DejaVuSans-43c" transform="translate(193.603516 0)"/>
      <use xlink:href="#DejaVuSans-44f" transform="translate(269.042969 0)"/>
      <use xlink:href="#DejaVuSans-20" transform="translate(329.199219 0)"/>
      <use xlink:href="#DejaVuSans-28" transform="translate(360.986328 0)"/>
      <use xlink:href="#DejaVuSans-442" transform="translate(400 0)"/>
      <use xlink:href="#DejaVuSans-438" transform="translate(458.251953 0)"/>
      <use xlink:href="#DejaVuSans-43a" transform="translate(523.242188 0)"/>
      <use xlink:href="#DejaVuSans-438" transform="translate(583.642578 0)"/>
      <use xlink:href="#DejaVuSans-29" transform="translate(648.632812 0)"/>
     </g>
    </g>
   </g>
   <g id="line2d_23">
    <path d="M 121.481932 479.001449 
L 134.049205 475.824855 
L 146.616477 470.850979 
L 159.18375 469.220885 
L 171.751023 466.002494 
L 184.318295 462.533319 
L 196.885568 459.189537 
L 209.452841 454.800822 
L 222.020114 451.206256 
L 234.587386 448.071459 
L 247.154659 444.393298 
L 259.721932 441.049516 
L 272.289205 434.570937 
L 284.856477 429.220885 
L 297.42375 428.468534 
L 309.991023 422.993089 
L 322.558295 418.896956 
L 335.125568 409.074594 
L 347.692841 404.309704 
L 360.260114 405.60542 
L 372.827386 400.380759 
L 385.394659 396.033842 
L 397.961932 394.654531 
L 410.529205 390.224019 
L 423.096477 387.548993 
L 435.66375 380.736036 
L 448.231023 373.087133 
L 460.798295 376.012943 
L 473.365568 370.161323 
L 485.932841 366.52496 
L 498.500114 362.67961 
L 511.067386 359.7538 
L 523.634659 354.905315 
L 536.201932 351.854113 
L 548.769205 348.092358 
L 561.336477 344.330602 
L 573.90375 337.726632 
L 586.471023 334.800822 
L 599.038295 327.778878 
L 611.605568 327.360905 
L 624.172841 320.297165 
L 636.740114 318.83426 
L 649.307386 309.847844 
L 661.874659 310.265817 
L 674.441932 309.179087 
L 687.009205 304.247008 
L 699.576477 299.732901 
L 712.14375 296.012943 
L 724.711023 290.244918 
L 737.278295 287.068325 
L 749.845568 285.856203 
" clip-path="url(#p64a76f0803)" style="fill: none; stroke: #0000ff; stroke-width: 2; stroke-linecap: square"/>
   </g>
   <g id="line2d_24">
    <path d="M 121.481932 479.001449 
L 134.049205 469.179087 
L 146.616477 457.559443 
L 159.18375 451.707823 
L 171.751023 449.408972 
L 184.318295 438.792462 
L 196.885568 426.295075 
L 209.452841 427.925169 
L 222.020114 415.260592 
L 234.587386 403.097583 
L 247.154659 399.461219 
L 259.721932 395.197896 
L 272.289205 388.468534 
L 284.856477 375.302389 
L 297.42375 370.83008 
L 309.991023 334.759025 
L 322.558295 354.52914 
L 335.125568 341.655576 
L 347.692841 339.147739 
L 360.260114 326.232379 
L 372.827386 316.702598 
L 385.394659 312.146694 
L 397.961932 304.873967 
L 410.529205 291.206256 
L 423.096477 290.077729 
L 435.66375 277.622139 
L 448.231023 269.59706 
L 460.798295 260.568847 
L 473.365568 251.958607 
L 485.932841 255.009808 
L 498.500114 244.05892 
L 511.067386 240.088178 
L 523.634659 230.433006 
L 536.201932 222.867698 
L 548.769205 214.299255 
L 561.336477 206.608554 
L 573.90375 191.352546 
L 586.471023 184.790373 
L 599.038295 179.607509 
L 611.605568 173.170728 
L 624.172841 160.965921 
L 636.740114 159.461219 
L 649.307386 150.391209 
L 661.874659 143.91263 
L 674.441932 127.026527 
L 687.009205 126.190582 
L 699.576477 114.320153 
L 712.14375 105.626318 
L 724.711023 105.542724 
L 737.278295 86.274176 
L 749.845568 90.161323 
" clip-path="url(#p64a76f0803)" style="fill: none; stroke-dasharray: 7.4,3.2; stroke-dashoffset: 0; stroke: #ff0000; stroke-width: 2"/>
   </g>
   <g id="patch_3">
    <path d="M 90.06375 498.637812 
L 90.06375 66.637812 
" style="fill: none; stroke: #000000; stroke-width: 0.8; stroke-linejoin: miter; stroke-linecap: square"/>
   </g>
   <g id="patch_4">
    <path d="M 781.26375 498.637812 
L 781.26375 66.637812 
" style="fill: none; stroke: #000000; stroke-width: 0.8; stroke-linejoin: miter; stroke-linecap: square"/>
   </g>
   <g id="patch_5">
    <path d="M 90.06375 498.637812 
L 781.26375 498.637812 
" style="fill: none; stroke: #000000; stroke-width: 0.8; stroke-linejoin: miter; stroke-linecap: square"/>
   </g>
   <g id="patch_6">
    <path d="M 90.06375 66.637812 
L 781.26375 66.637812 
" style="fill: none; stroke: #000000; stroke-width: 0.8; stroke-linejoin: miter; stroke-linecap: square"/>
   </g>
   <g id="text_14">
    <!-- Сравнение времени выполнения итеративного и рекурсивного алгоритмов -->
    <g transform="translate(155.272187 46.637812) scale(0.14 -0.14)">
     <defs>
      <path id="DejaVuSans-421" d="M 4122 4306 
L 4122 3641 
Q 3803 3938 3442 4084 
Q 3081 4231 2675 4231 
Q 1875 4231 1450 3742 
Q 1025 3253 1025 2328 
Q 1025 1406 1450 917 
Q 1875 428 2675 428 
Q 3081 428 3442 575 
Q 3803 722 4122 1019 
L 4122 359 
Q 3791 134 3420 21 
Q 3050 -91 2638 -91 
Q 1578 -91 968 557 
Q 359 1206 359 2328 
Q 359 3453 968 4101 
Q 1578 4750 2638 4750 
Q 3056 4750 3426 4639 
Q 3797 4528 4122 4306 
z
" transform="scale(0.015625)"/>
      <path id="DejaVuSans-44b" d="M 3907 3500 
L 4482 3500 
L 4482 0 
L 3907 0 
L 3907 3500 
z
M 4195 3584 
L 4195 3584 
z
M 2781 1038 
Q 2781 1319 2576 1466 
Q 2372 1613 1978 1613 
L 1159 1613 
L 1159 459 
L 1978 459 
Q 2372 459 2576 607 
Q 2781 756 2781 1038 
z
M 581 3500 
L 1159 3500 
L 1159 2072 
L 2003 2072 
Q 2672 2072 3033 1817 
Q 3394 1563 3394 1038 
Q 3394 513 3033 256 
Q 2672 0 2003 0 
L 581 0 
L 581 3500 
z
" transform="scale(0.015625)"/>
      <path id="DejaVuSans-433" d="M 581 0 
L 581 3500 
L 3050 3500 
L 3050 3041 
L 1159 3041 
L 1159 0 
L 581 0 
z
" transform="scale(0.015625)"/>
      <path id="DejaVuSans-443" d="M 2059 -325 
Q 1816 -950 1584 -1140 
Q 1353 -1331 966 -1331 
L 506 -1331 
L 506 -850 
L 844 -850 
Q 1081 -850 1212 -737 
Q 1344 -625 1503 -206 
L 1606 56 
L 191 3500 
L 800 3500 
L 1894 763 
L 2988 3500 
L 3597 3500 
L 2059 -325 
z
" transform="scale(0.015625)"/>
     </defs>
     <use xlink:href="#DejaVuSans-421"/>
     <use xlink:href="#DejaVuSans-440" transform="translate(69.824219 0)"/>
     <use xlink:href="#DejaVuSans-430" transform="translate(133.300781 0)"/>
     <use xlink:href="#DejaVuSans-432" transform="translate(194.580078 0)"/>
     <use xlink:href="#DejaVuSans-43d" transform="translate(253.515625 0)"/>
     <use xlink:href="#DejaVuSans-435" transform="translate(318.896484 0)"/>
     <use xlink:href="#DejaVuSans-43d" transform="translate(380.419922 0)"/>
     <use xlink:href="#DejaVuSans-438" transform="translate(445.800781 0)"/>
     <use xlink:href="#DejaVuSans-435" transform="translate(510.791016 0)"/>
     <use xlink:href="#DejaVuSans-20" transform="translate(572.314453 0)"/>
     <use xlink:href="#DejaVuSans-432" transform="translate(604.101562 0)"/>
     <use xlink:href="#DejaVuSans-440" transform="translate(663.037109 0)"/>
     <use xlink:href="#DejaVuSans-435" transform="translate(726.513672 0)"/>
     <use xlink:href="#DejaVuSans-43c" transform="translate(788.037109 0)"/>
     <use xlink:href="#DejaVuSans-435" transform="translate(863.476562 0)"/>
     <use xlink:href="#DejaVuSans-43d" transform="translate(925 0)"/>
     <use xlink:href="#DejaVuSans-438" transform="translate(990.380859 0)"/>
     <use xlink:href="#DejaVuSans-20" transform="translate(1055.371094 0)"/>
     <use xlink:href="#DejaVuSans-432" transform="translate(1087.158203 0)"/>
     <use xlink:href="#DejaVuSans-44b" transform="translate(1146.09375 0)"/>
     <use xlink:href="#DejaVuSans-43f" transform="translate(1225.048828 0)"/>
     <use xlink:href="#DejaVuSans-43e" transform="translate(1290.429688 0)"/>
     <use xlink:href="#DejaVuSans-43b" transform="translate(1351.611328 0)"/>
     <use xlink:href="#DejaVuSans-43d" transform="translate(1415.527344 0)"/>
     <use xlink:href="#DejaVuSans-435" transform="translate(1480.908203 0)"/>
     <use xlink:href="#DejaVuSans-43d" transform="translate(1542.431641 0)"/>
     <use xlink:href="#DejaVuSans-438" transform="translate(1607.8125 0)"/>
     <use xlink:href="#DejaVuSans-44f" transform="translate(1672.802734 0)"/>
     <use xlink:href="#DejaVuSans-20" transform="translate(1732.958984 0)"/>
     <use xlink:href="#DejaVuSans-438" transform="translate(1764.746094 0)"/>
     <use xlink:href="#DejaVuSans-442" transform="translate(1829.736328 0)"/>
     <use xlink:href="#DejaVuSans-435" transform="translate(1887.988281 0)"/>
     <use xlink:href="#DejaVuSans-440" transform="translate(1949.511719 0)"/>
     <use xlink:href="#DejaVuSans-430" transform="translate(2012.988281 0)"/>
     <use xlink:href="#DejaVuSans-442" transform="translate(2074.267578 0)"/>
     <use xlink:href="#DejaVuSans-438" transform="translate(2132.519531 0)"/>
     <use xlink:href="#DejaVuSans-432" transform="translate(2197.509766 0)"/>
     <use xlink:href="#DejaVuSans-43d" transform="translate(2256.445312 0)"/>
     <use xlink:href="#DejaVuSans-43e" transform="translate(2321.826172 0)"/>
     <use xlink:href="#DejaVuSans-433" transform="translate(2383.007812 0)"/>
     <use xlink:href="#DejaVuSans-43e" transform="translate(2435.546875 0)"/>
     <use xlink:href="#DejaVuSans-20" transform="translate(2496.728516 0)"/>
     <use xlink:href="#DejaVuSans-438" transform="translate(2528.515625 0)"/>
     <use xlink:href="#DejaVuSans-20" transform="translate(2593.505859 0)"/>
     <use xlink:href="#DejaVuSans-440" transform="translate(2625.292969 0)"/>
     <use xlink:href="#DejaVuSans-435" transform="translate(2688.769531 0)"/>
     <use xlink:href="#DejaVuSans-43a" transform="translate(2750.292969 0)"/>
     <use xlink:href="#DejaVuSans-443" transform="translate(2810.693359 0)"/>
     <use xlink:href="#DejaVuSans-440" transform="translate(2869.873047 0)"/>
     <use xlink:href="#DejaVuSans-441" transform="translate(2933.349609 0)"/>
     <use xlink:href="#DejaVuSans-438" transform="translate(2988.330078 0)"/>
     <use xlink:href="#DejaVuSans-432" transform="translate(3053.320312 0)"/>
     <use xlink:href="#DejaVuSans-43d" transform="translate(3112.255859 0)"/>
     <use xlink:href="#DejaVuSans-43e" transform="translate(3177.636719 0)"/>
     <use xlink:href="#DejaVuSans-433" transform="translate(3238.818359 0)"/>
     <use xlink:href="#DejaVuSans-43e" transform="translate(3291.357422 0)"/>
     <use xlink:href="#DejaVuSans-20" transform="translate(3352.539062 0)"/>
     <use xlink:href="#DejaVuSans-430" transform="translate(3384.326172 0)"/>
     <use xlink:href="#DejaVuSans-43b" transform="translate(3445.605469 0)"/>
     <use xlink:href="#DejaVuSans-433" transform="translate(3509.521484 0)"/>
     <use xlink:href="#DejaVuSans-43e" transform="translate(3562.060547 0)"/>
     <use xlink:href="#DejaVuSans-440" transform="translate(3623.242188 0)"/>
     <use xlink:href="#DejaVuSans-438" transform="translate(3686.71875 0)"/>
     <use xlink:href="#DejaVuSans-442" transform="translate(3751.708984 0)"/>
     <use xlink:href="#DejaVuSans-43c" transform="translate(3809.960938 0)"/>
     <use xlink:href="#DejaVuSans-43e" transform="translate(3885.400391 0)"/>
     <use xlink:href="#DejaVuSans-432" transform="translate(3946.582031 0)"/>
    </g>
   </g>
   <g id="legend_1">
    <g id="patch_7">
     <path d="M 98.46375 111.465312 
L 222.165 111.465312 
Q 224.565 111.465312 224.565 109.065312 
L 224.565 75.037812 
Q 224.565 72.637812 222.165 72.637812 
L 98.46375 72.637812 
Q 96.06375 72.637812 96.06375 75.037812 
L 96.06375 109.065312 
Q 96.06375 111.465312 98.46375 111.465312 
z
" style="fill: #ffffff; opacity: 0.8; stroke: #cccccc; stroke-linejoin: miter"/>
    </g>
    <g id="line2d_25">
     <path d="M 100.86375 82.355937 
L 112.86375 82.355937 
L 124.86375 82.355937 
" style="fill: none; stroke: #0000ff; stroke-width: 2; stroke-linecap: square"/>
    </g>
    <g id="text_15">
     <!-- Итеративный -->
     <g transform="translate(134.46375 86.555937) scale(0.12 -0.12)">
      <defs>
       <path id="DejaVuSans-418" d="M 4159 4666 
L 4159 0 
L 3547 0 
L 3547 3903 
L 1478 0 
L 628 0 
L 628 4666 
L 1241 4666 
L 1241 763 
L 3309 4666 
L 4159 4666 
z
" transform="scale(0.015625)"/>
       <path id="DejaVuSans-439" d="M 3578 3500 
L 3578 0 
L 3006 0 
L 3006 2809 
L 1319 0 
L 581 0 
L 581 3500 
L 1153 3500 
L 1153 697 
L 2838 3500 
L 3578 3500 
z
M 1102 4833 
L 1471 4833 
Q 1505 4599 1656 4481 
Q 1808 4364 2080 4364 
Q 2349 4364 2499 4480 
Q 2649 4596 2689 4833 
L 3058 4833 
Q 3027 4386 2780 4161 
Q 2533 3936 2080 3936 
Q 1627 3936 1380 4161 
Q 1133 4386 1102 4833 
z
" transform="scale(0.015625)"/>
      </defs>
      <use xlink:href="#DejaVuSans-418"/>
      <use xlink:href="#DejaVuSans-442" transform="translate(74.804688 0)"/>
      <use xlink:href="#DejaVuSans-435" transform="translate(133.056641 0)"/>
      <use xlink:href="#DejaVuSans-440" transform="translate(194.580078 0)"/>
      <use xlink:href="#DejaVuSans-430" transform="translate(258.056641 0)"/>
      <use xlink:href="#DejaVuSans-442" transform="translate(319.335938 0)"/>
      <use xlink:href="#DejaVuSans-438" transform="translate(377.587891 0)"/>
      <use xlink:href="#DejaVuSans-432" transform="translate(442.578125 0)"/>
      <use xlink:href="#DejaVuSans-43d" transform="translate(501.513672 0)"/>
      <use xlink:href="#DejaVuSans-44b" transform="translate(566.894531 0)"/>
      <use xlink:href="#DejaVuSans-439" transform="translate(645.849609 0)"/>
     </g>
    </g>
    <g id="line2d_26">
     <path d="M 100.86375 99.969687 
L 112.86375 99.969687 
L 124.86375 99.969687 
" style="fill: none; stroke-dasharray: 7.4,3.2; stroke-dashoffset: 0; stroke: #ff0000; stroke-width: 2"/>
    </g>
    <g id="text_16">
     <!-- Рекурсивный -->
     <g transform="translate(134.46375 104.169687) scale(0.12 -0.12)">
      <defs>
       <path id="DejaVuSans-420" d="M 1259 4147 
L 1259 2394 
L 2053 2394 
Q 2494 2394 2734 2622 
Q 2975 2850 2975 3272 
Q 2975 3691 2734 3919 
Q 2494 4147 2053 4147 
L 1259 4147 
z
M 628 4666 
L 2053 4666 
Q 2838 4666 3239 4311 
Q 3641 3956 3641 3272 
Q 3641 2581 3239 2228 
Q 2838 1875 2053 1875 
L 1259 1875 
L 1259 0 
L 628 0 
L 628 4666 
z
" transform="scale(0.015625)"/>
      </defs>
      <use xlink:href="#DejaVuSans-420"/>
      <use xlink:href="#DejaVuSans-435" transform="translate(60.302734 0)"/>
      <use xlink:href="#DejaVuSans-43a" transform="translate(121.826172 0)"/>
      <use xlink:href="#DejaVuSans-443" transform="translate(182.226562 0)"/>
      <use xlink:href="#DejaVuSans-440" transform="translate(241.40625 0)"/>
      <use xlink:href="#DejaVuSans-441" transform="translate(304.882812 0)"/>
      <use xlink:href="#DejaVuSans-438" transform="translate(359.863281 0)"/>
      <use xlink:href="#DejaVuSans-432" transform="translate(424.853516 0)"/>
      <use xlink:href="#DejaVuSans-43d" transform="translate(483.789062 0)"/>
      <use xlink:href="#DejaVuSans-44b" transform="translate(549.169922 0)"/>
      <use xlink:href="#DejaVuSans-439" transform="translate(628.125 0)"/>
     </g>
    </g>
   </g>
  </g>
 </g>
 <defs>
  <clipPath id="p64a76f0803">
   <rect x="90.06375" y="66.637812" width="691.2" height="432"/>
  </clipPath>
 </defs>
</svg>
